<?xml version="1.0" encoding="utf-8"?>
<!-- Generator: Adobe Illustrator 28.2.0, SVG Export Plug-In . SVG Version: 6.00 Build 0)  -->
<svg version="1.1" id="Capa_1" xmlns="http://www.w3.org/2000/svg" xmlns:xlink="http://www.w3.org/1999/xlink" x="0px" y="0px"
	 viewBox="0 0 1600 614" style="enable-background:new 0 0 1600 614;" xml:space="preserve">
<style type="text/css">
	.st0{fill:#FFFFFF;}
</style>
<g transform="translate(0.000000,614.000000) scale(0.100000,-0.100000)">
	<path class="st0" d="M0,3070V0h8000h8000v3070v3070H8000H0V3070z M8537,4864c136-46,217-114,273-228c30-60,35-81,38-163
		c5-102-6-157-46-238c-32-64-116-146-186-180c-31-15-56-30-56-34s17-17,39-29c55-31,107-29,164,8l47,30l35-38c50-53,53-70,19-99
		c-136-115-329-88-503,71c-31,28-63,46-96,54c-231,59-373,264-338,491c26,169,137,299,301,352C8304,4885,8470,4887,8537,4864z
		 M5530,4790v-80h-225h-226l3-87l3-88l198-3l197-2v-80v-80h-200h-201l3-92l3-93l230-5l230-5l3-77l3-78h-331h-330v425v425h320h320
		V4790z M5926,4798c33-40,64-78,69-84c6-6,73-88,150-183l140-171l3,255l2,255h95h95v-425v-425h-82l-83,1l-65,81c-36,44-70,86-75,92
		c-6,6-69,83-140,170l-130,159l-3-251l-2-252h-100h-100v425v425h84h84L5926,4798z M7183,4854c116-30,191-93,224-189
		c21-64,14-185-15-241c-20-39-105-124-123-124c-5,0-9-5-9-11c0-10,96-154,158-236l24-33h-109h-110l-39,58c-21,31-59,85-83,120
		l-45,63l-86-3l-85-3l-3-118l-3-118l-97,3l-97,3l-3,423l-2,422h221C7070,4870,7136,4866,7183,4854z M7780,4445v-425h-100h-100v425
		v425h100h100V4445z M9192,4593c3-267,4-280,26-325c33-67,79-93,162-93s129,26,162,93c22,45,23,58,26,325l3,277h95h94v-278
		c0-300-7-356-54-430c-32-51-89-100-144-123c-101-44-267-43-369,1c-70,30-143,108-173,185c-23,57-24,74-28,353l-4,292h100h101
		L9192,4593z M10600,4790v-80h-225h-225v-90v-90h200h200v-80v-80h-200h-200v-95v-95l233-2l232-3l3-77l3-78h-331h-330v425v425h320
		h320V4790z M3120,3860c80-13,173-57,224-107l38-37l-63-57l-64-57l-30,24c-60,50-115,69-195,68c-91,0-139-22-197-88
		c-50-57-67-115-61-204c11-152,110-241,266-242c78,0,121,16,181,65c17,15,35,25,40,23c6-1,35-27,66-57l56-54l-25-26
		c-39-41-125-89-191-106c-67-17-199-19-264-4c-125,28-239,120-294,236c-30,64-32,74-32,183c0,153,23,216,111,307
		C2799,3842,2945,3887,3120,3860z M9653,3856c42-8,98-25,127-37c58-25,59-26,15-122l-26-57l-47,24c-151,75-342,48-342-49
		c0-53,37-76,176-109c65-15,147-41,182-58c108-51,149-137,122-256c-10-46-21-65-65-108c-42-42-65-56-120-73c-128-40-335-22-457,40
		c-24,12-46,26-49,32c-5,7,41,124,57,145c1,2,24-8,51-21c85-43,157-59,248-55c94,3,138,25,143,71c8,62-25,83-183,121
		c-119,29-206,64-244,99c-88,81-77,259,20,341C9349,3859,9496,3886,9653,3856z M12180,3859c83-13,175-57,223-107l38-39l-63-55
		l-63-56l-30,25c-65,53-105,67-190,67c-93,0-137-18-196-81c-53-55-73-117-67-205c10-156,107-247,263-248c76,0,153,28,189,69
		c11,11,24,21,30,21c7,0,38-26,69-58l58-59l-40-36c-103-93-272-130-433-96c-129,28-246,119-301,236c-27,59-32,81-35,168
		c-3,83,0,111,18,164C11722,3783,11934,3899,12180,3859z M3998,3758c23-51,107-239,187-417s145-328,145-333s-45-7-102-6l-103,3
		l-35,88l-35,87l-199-2l-200-3l-35-88l-36-87l-100,2c-60,2-99,7-98,13c3,13,303,689,343,773l30,62h98h98L3998,3758z M5025,3822
		c94-43,135-103,135-194c0-61-21-111-62-150l-33-31l25-16c86-57,110-100,110-196c0-106-43-165-149-207c-52-20-76-22-343-26l-288-4
		v427v426l278-3C4963,3845,4977,3844,5025,3822z M5911,3819c111-52,170-137,177-252c7-118-34-208-120-264c-24-15-45-28-47-30
		c-2-1,10-19,26-40c41-53,144-203,150-219c4-11-15-14-98-14h-104l-84,120l-84,120h-88h-89v-120v-120h-100h-100v426v426l253-4
		C5851,3845,5856,3845,5911,3819z M6890,3770v-80h-225h-225v-90v-90h200h200v-75v-75l-197-2l-198-3l-3-97l-3-98l233-2l233-3v-75v-75
		l-327-3l-328-2v425v425h320h320V3770z M7578,3832c120-38,190-111,214-223c28-137-28-259-151-328c-10-6,9-40,78-139
		c50-72,91-133,91-136s-47-6-104-6h-104l-52,76c-29,42-66,96-83,120l-31,44h-88h-88v-120v-120h-100h-100v425v425h229
		C7484,3850,7527,3847,7578,3832z M8470,3733c56-127,205-457,276-615c24-54,44-102,44-108c0-7-34-10-102-8l-102,3l-35,88l-36,87
		l-200-2l-199-3l-35-87l-34-88h-99c-71,0-98,3-98,12c0,7,51,127,114,268c63,140,140,314,171,385c91,207,69,185,184,185h98L8470,3733
		z M10200,3572c0-268,1-279,23-322c35-70,64-85,162-85c96,0,125,14,159,81c20,36,21,58,24,322l3,282h100h101l-4-287
		c-4-231-8-298-21-339c-35-106-124-190-233-220c-93-25-241-17-315,18c-79,36-131,87-165,160l-29,63l-3,303l-3,302h100h101V3572z
		 M11160,3505v-345h210h210v-80v-80h-310h-310v425v425h100h100V3505z M13062,3748c186-411,328-730,328-740c0-5-46-7-102-6l-102,3
		l-35,88l-36,87l-200-2l-199-3l-35-87l-34-88h-100c-95,0-99,1-94,20c3,12,86,203,184,425l178,404l100,1h101L13062,3748z M9655,2640
		c1086-27,1969-81,2922-181c228-23,832-100,1023-129c74-11,167-25,205-30c133-19,623-112,555-105c-25,2-126,13-225,24
		c-623,70-1215,109-2140,143c-436,16-2159,15-2630-1c-1233-42-1893-74-2920-141c-293-20-399-27-945-70c-699-55-1972-174-2080-195
		c-84-16-791-86-1075-106c-227-17-572-16-655,0c-152,30-161,80-29,164c132,84,293,134,543,167c83,12,198,27,256,35
		c191,26,823,105,960,120c74,8,214,24,310,34c1232,140,2722,240,4045,271C8254,2651,9212,2651,9655,2640z M6120,1828
		c12-29,73-166,136-304s114-254,114-258s-27-6-61-4l-61,3l-30,73l-31,72h-152h-151l-33-75l-33-75h-60c-44,0-59,3-55,13
		c3,6,42,92,86,189c45,98,81,180,81,182c0,3,24,57,54,120l55,116h59h60L6120,1828z M7256,1752c22-11,48-29,58-41c19-21,19-21-15-51
		c-19-16-37-30-41-30s-24,11-44,25c-49,34-127,35-174,3c-58-40-75-72-75-143c0-76,19-109,86-143c57-30,125-25,176,14l35,27l36-36
		c35-35,35-37,18-56c-55-61-218-82-314-41c-100,43-155,128-154,241c0,121,77,219,195,250C7095,1785,7213,1774,7256,1752z M6560,1565
		v-204l128-3l127-3v-45v-45l-187-3l-188-2v255v255h60h60V1565z M7788,1526c62-135,112-250,112-255c0-7-22-11-54-11h-53l-20,53
		l-20,52l-131,3l-130,3l-23-56l-23-55h-54c-47,0-53,2-48,18c4,9,55,124,114,254l107,238h56h56L7788,1526z M8090,1565v-205h130h130
		v-50v-50h-185h-185v255v255h55h55V1565z M8766,1755c61-18,108-52,142-102c21-30,27-53,30-112c5-91-9-141-54-190
		c-60-68-115-84-296-89l-158-4v256v256h143C8670,1770,8732,1765,8766,1755z M9440,1725v-45h-135h-135v-55v-54l118-3l117-3l3-42l3-43
		h-120h-121v-65c0-36,3-64,8-64c4,1,67,1,140,0l132-1v-45v-45l-197,2l-198,3l-3,240c-1,132,0,245,2,252c4,10,51,13,196,13h190V1725z
		"/>
	<path class="st0" d="M8318,4706c-140-39-219-175-188-324c17-77,64-141,130-177c47-25,66-29,130-29c82,0,114,12,176,67
		c79,69,109,215,65,313C8575,4679,8444,4742,8318,4706z"/>
	<path class="st0" d="M6880,4565v-145l26-6c44-11,200,3,240,22c50,24,74,67,74,131c0,44-5,58-30,86c-38,44-89,57-214,57h-96V4565z"
		/>
	<path class="st0" d="M3835,3604c-64-151-105-255-105-264c0-6,45-10,125-10c96,0,125,3,125,13c0,17-108,279-120,291
		C3855,3639,3844,3626,3835,3604z"/>
	<path class="st0" d="M4620,3600v-100h103c172,1,237,27,237,97c0,83-41,103-215,103h-125V3600z"/>
	<path class="st0" d="M4620,3255v-105h133c195,0,247,22,247,103c0,88-43,107-240,107h-140V3255z"/>
	<path class="st0" d="M5550,3545v-145h110c121,0,159,10,200,55c21,23,25,36,25,92c0,63-1,66-38,98c-45,39-70,45-198,45h-99V3545z"/>
	<path class="st0" d="M7260,3546v-146h113c128,0,167,13,204,69c41,61,23,148-38,192c-31,22-46,24-156,28l-123,3V3546z"/>
	<path class="st0" d="M8256,3509c-84-201-91-179,58-179c98,0,126,3,126,13c0,14-57,158-101,254l-24,53L8256,3509z"/>
	<path class="st0" d="M12900,3614c-6-16-34-81-61-146c-27-64-49-121-49-127c0-7,41-11,125-11c101,0,125,3,125,14
		c0,17-108,277-121,290C12914,3639,12906,3631,12900,3614z"/>
	<path class="st0" d="M5982,1641c-29-66-52-124-52-130c0-7,36-11,105-11c58,0,105,4,105,9c0,9-98,242-104,248
		C6035,1759,6010,1706,5982,1641z"/>
	<path class="st0" d="M7576,1562c-20-48-36-91-36-95s36-7,80-7c57,0,80,4,80,13c0,18-72,177-80,177C7616,1650,7596,1610,7576,1562z"
		/>
	<path class="st0" d="M8547,1673c-4-3-7-75-7-160v-153h88c63,0,96,5,121,18c123,62,101,257-33,291C8667,1681,8557,1684,8547,1673z"
		/>
</g>
</svg>
