<?xml version="1.0" encoding="utf-8"?>
<!-- Generator: Adobe Illustrator 28.2.0, SVG Export Plug-In . SVG Version: 6.00 Build 0)  -->
<svg version="1.1" id="Capa_1" xmlns="http://www.w3.org/2000/svg" xmlns:xlink="http://www.w3.org/1999/xlink" x="0px" y="0px"
	 viewBox="0 0 1600 614" style="enable-background:new 0 0 1600 614;" xml:space="preserve">
<style type="text/css">
	.st0{fill:#FFFFFF;}
</style>
<g>
	<path class="st0" d="M800,0H0v307v307h800h800V307V0H800z M1451.2,268.8c0.2-1.8,1.2-2.4,4.1-2.9c2.1-0.3,4.3-1.1,5-1.8
		c0.9-0.9,1.2-8.6,1.2-28.2v-27.1l-2.4-1.9c-1.3-1-3.2-1.9-4.2-1.9c-1.2,0-1.9-0.7-1.9-2c0-1.9,0.7-2,25.5-2c19.6,0,25.7,0.3,26,1.2
		c0.2,0.7,0.5,4.6,0.7,8.5c0.3,6.9,0.2,7.3-1.8,7.3c-1.5,0-2.6-1.2-3.9-4.1c-3-6.5-5.5-7.9-14.6-7.9h-7.9v13v13h6.9
		c7.7,0,9.8-1.2,10.8-6.1c0.4-2.2,1.1-2.9,2.9-2.9c2.4,0,2.4,0,2.4,12.1c0,11.8,0,12-2.2,11.7c-1.4-0.2-2.5-1.4-3.1-3.3
		c-1.6-5.1-2.4-5.5-10.3-5.5h-7.4v13c0,15.2-0.2,15,11,15c9.6,0,12.5-1.7,17-10.3c2-3.7,6-5.2,6-2.3c0,1.7-2.7,13.7-3.6,16
		c-0.5,1.4-4.1,1.6-28.6,1.6h-27.9L1451.2,268.8z M1264,268.6c0-2.2,0.4-2.6,2.9-2.6c6,0,6.1-0.4,6.1-30.4c0-29.8,0.1-29-5.8-30.2
		c-2.3-0.5-3.2-1.2-3.2-2.6c0-1.9,0.7-1.9,23.8-1.6c21.7,0.3,24.2,0.6,29.3,2.6c7.5,3,14.2,9,17.4,15.7c2.3,4.6,2.7,6.8,2.7,13.7
		c0,11-2.7,18.4-9.2,24.9c-9.8,9.8-17.2,12-43.7,12.6l-20.3,0.5V268.6z M1191,265.6c1.6-0.3,3.7-1.4,4.7-2.6
		c1.1-1.1,6.1-12.5,11.2-25.2c16.2-40.5,14.9-37.8,18.1-37.8c2.5,0,3,0.6,5.5,7.7c1.6,4.3,6.8,18.1,11.6,30.8
		c9,23.4,11.4,27.5,16,27.5c1.4,0,1.9,0.7,1.9,2.5v2.6l-15.2-0.3c-13.7-0.3-15.3-0.5-15.6-2.1c-0.3-1.2,0.6-2.1,2.7-2.8
		c3.8-1.3,3.9-3.1,0.7-11.4l-2.3-6l-10.5-0.3l-10.6-0.3l-2.1,6.3c-1.2,3.4-2.1,7-2.1,8c0,2.1,2.9,3.8,6.4,3.8c2.1,0,2.6,0.5,2.6,2.5
		v2.5h-12.8c-7.1,0-13.1-0.3-13.4-0.6C1186.4,269.1,1188.4,266.2,1191,265.6z M1073.4,205.4c-2.4-0.4-3.4-1.2-3.4-2.5
		c0-1.8,1-1.9,16.5-1.9s16.5,0.1,16.5,1.9c0,1.4-1,2.1-3.5,2.5c-1.9,0.4-3.9,1.5-4.5,2.6s-1,12.4-1,28.3c0,23.9,0.2,26.5,1.8,28
		c0.9,0.8,2.8,1.7,4.2,1.9c1.7,0.2,2.6,1,2.8,2.5l0.3,2.3h-16.6h-16.6l0.3-2.2c0.2-1.6,1.2-2.4,3.3-2.8c5.1-0.9,5.5-3,5.5-29.6
		C1079,208.8,1078.6,206.4,1073.4,205.4z M879,268.5c0-2,0.5-2.5,2.7-2.5c1.4,0,3.5-0.7,4.5-1.7c1.7-1.5,1.8-3.7,1.8-28
		c0-15.9-0.4-27.2-1-28.3s-2.6-2.2-4.5-2.6c-2.5-0.4-3.5-1.1-3.5-2.5c0-1.8,1-1.9,19.3-1.9c13.6,0,20.8,0.4,24,1.4
		c9.8,2.9,14.7,9.3,14.7,19c0,3-0.4,6.6-1,8c-1.6,4.3-7.9,10.4-12.7,12.2c-4.9,1.9-13.2,2.4-17.5,1l-2.8-0.8v9.9
		c0,11.7,1.2,14.3,6.6,14.3c3,0,3.4,0.3,3.4,2.5v2.5h-17h-17V268.5z M764.1,222c6.3-13.4,15.8-19.6,33.9-22.4
		c4.7-0.7,6.4-0.6,15.3,0.5c9.5,1.3,11.7,2.5,11.7,6.7c0,1.5,0.3,5.1,0.6,7.9c0.6,4.9,0.5,5.3-1.4,5.3c-1.6,0-2.6-1.1-3.7-3.7
		c-3.4-8.1-8.8-11.3-18.8-11.3c-11.9,0-19,6.1-22.3,19.1c-3.3,13,0.2,28.7,8.1,36.4c11.2,10.8,26.6,7.8,34.1-6.6
		c1.6-3.1,4.1-3.8,5-1.4c0.7,1.8-3.3,15-5,16.4c-3.5,2.8-23.6,4.1-32.4,2.1c-11.3-2.7-19.6-9-24.4-18.8c-3-6-3.3-7.5-3.3-15.7
		C761.5,228.9,761.9,226.6,764.1,222z M573.5,201c15.2,0,16.5,0.1,16.5,1.8c0,1.2-1.1,2.1-3.2,2.7c-1.9,0.6-3.8,2.1-4.5,3.5
		c-1.6,3.2-1.7,34.8-0.2,42.2c3.8,17.6,27.8,18,33.1,0.6c0.9-2.9,1.3-10.4,1.3-22.9c0-21.2-0.4-22.4-7.7-23.5
		c-2.8-0.5-3.8-1.1-3.8-2.5c0-1.8,1-1.9,13.5-1.9c12.6,0,13.5,0.1,13.5,1.9c0,1.3-0.9,2.1-2.9,2.6c-6.1,1.3-6.4,2.4-7.1,26.3
		c-0.7,23.6-1.2,25.9-6.9,32.4c-1.7,1.9-5.4,4.6-8.3,5.8c-4.4,1.9-6.5,2.2-14.2,1.8c-10-0.5-15-2.4-19.7-7.5
		c-6-6.4-6.3-7.9-6.9-32.8c-0.3-12.7-0.9-23.5-1.3-24.2c-0.4-0.7-2.3-1.5-4.2-1.9c-2.5-0.4-3.5-1.1-3.5-2.5
		C557,201.1,558,201,573.5,201z M460,268.5c0-1.9,0.5-2.5,2.3-2.5c1.3,0,3.3-0.9,4.4-2c2.5-2.2,2.7-3.7,4.8-33
		c1.6-23.1,1.4-24.2-4.9-25.4c-2.7-0.5-3.6-1.2-3.6-2.6c0-1.9,0.8-2,11.8-2h11.7l10,23c8,18.2,10.2,22.6,11.1,21.5
		c0.6-0.8,5.1-10.6,9.9-21.8c4.9-11.1,9.3-20.8,9.8-21.5c0.7-0.8,4.3-1.2,11.8-1.2c9.9,0,10.9,0.2,10.9,1.8c0,1.3-1.2,2.2-3.9,3
		c-2.9,0.9-4.1,1.9-4.5,3.8c-0.4,1.4-0.4,13.8,0,27.6c0.6,22.5,0.9,25.3,2.6,27c1,1,2.9,1.8,4.3,1.8c2,0,2.5,0.5,2.5,2.5v2.5
		l-16.2-0.2c-15.5-0.3-16.3-0.4-16.3-2.3c0-1.4,0.8-2.1,2.5-2.3c5.9-0.8,6-1.3,6-27c0-13-0.2-23.3-0.6-23
		c-0.3,0.3-5.5,12.7-11.7,27.4c-9.2,22-11.6,26.9-13.1,26.9c-2.1,0-3.6-3.2-16.1-35.3c-3.6-9.4-7.1-17.2-7.6-17.2s-0.9,2.4-0.9,5.3
		c0,3-0.3,12.8-0.7,21.9c-0.6,16-0.5,16.6,1.5,18.6c1.3,1.3,3.5,2.2,5.2,2.2c2.5,0,3,0.4,3,2.5v2.5h-13h-13V268.5z M366.9,155.3
		c0.6-2.1,10.4-10.3,12.4-10.3c0.6,0,0.7,1.9,0.3,4.6c-0.3,2.6-0.6,5.9-0.6,7.4c0,1.9-1.1,3.6-4,5.9c-3.8,3-4.3,3.1-7,2
		C365,163.5,364.9,162.8,366.9,155.3z M299.2,203.2c0.4,2.9-3,3.7-4.9,1.2s-1.6-7.2,0.8-12.4c4.1-9,7.3-10.2,11.4-4.3
		c2.4,3.6,2.4,3.9,0.8,5.1C301.7,196.9,298.8,200.6,299.2,203.2z M191.7,187.2c0.5,0.2,2.2,1.2,4,2.3c3,1.8,3.2,2.3,3,7.2
		c-0.2,5-0.9,6.4-2.2,4.4C195.2,198.9,191,186.8,191.7,187.2z M431,367c-2.5,6.5-8.9,18.3-10.3,19.2c-3,1.9-14.7-0.1-14.7-2.5
		c0-0.6,0.9-2.1,2.1-3.3l2.1-2.2l3.4,2c1.9,1.1,3.4,2.4,3.4,2.9s0.5,0.9,1,0.9c0.6,0,1-0.7,1-1.6c0-2.3-5.8-7.4-8.4-7.4
		c-1.2,0-6.2,1.6-11,3.6c-10.1,4.1-16.6,4.3-21.4,0.7c-3.2-2.4-4.1-7.3-1.7-9.3c1.4-1.2,2.4-1.1,6.5,0.3c2.6,0.9,7.2,1.7,10.1,1.7
		l5.4-0.1l-6-3c-4.2-2.1-7-2.8-9.2-2.5c-4.6,0.7-4.8-0.3-0.6-4.6l3.7-3.8h-2.9c-5.1,0-15.3,2.9-24.1,6.6l-8.4,3.6v13.7
		c0,8.5-0.6,16-1.5,19.9c-4.3,18-16,29.4-31.9,31l-6.6,0.7l10.5,17.5c5.8,9.6,10.4,18.4,10.2,19.4c-0.3,2.9-3.2,4.3-5.3,2.5
		c-2.2-1.7-11.1-15.2-19.4-29.3l-6.2-10.6h-40.3h-40.3l-7.3,12.1c-9.4,15.6-17,26.9-19.1,28.2c-2,1.3-4.8-0.6-4.8-3.3
		c0-0.9,4.5-9.2,10-18.4c5.5-9.2,10-17.1,10-17.5c0-0.5-2.7-1.1-5.9-1.4c-6-0.5-14.8-4-18.7-7.4c-4.9-4.4-9.5-11.8-11.9-19.4
		c-2.2-7.1-2.5-9.7-2.5-22.7v-14.7l-6.8-3.2c-7.7-3.6-20.9-7.3-25.9-7.3H134l4,3.6c4.5,4.1,4.4,5.5-0.3,4.8c-2.2-0.3-5,0.4-9.2,2.5
		l-6,3l4.9,0.1c2.7,0,7.3-0.7,10.2-1.7c4.4-1.3,5.6-1.4,6.8-0.3c2.2,1.8,2,5.6-0.4,8c-5.1,5.1-12.5,5.3-23.5,0.5
		c-4.4-1.9-8.9-3.5-10.1-3.5c-2.6,0-8.4,5.1-8.4,7.4c0,1.3,1,0.9,4.2-1.5l4.3-3l2.2,2.6c1.3,1.4,2.3,3,2.3,3.4
		c0,1.3-8.3,3.3-12.1,2.9c-3.3-0.3-3.6-0.8-9.3-11.9c-5.1-10.2-5.7-11.8-4.6-13.8c1.4-2.6,8.3-6,12.2-6.1c2.6,0,2.7-0.2,1.6-2.5
		c-2.4-5.3,6.1-16.3,16.7-21.5c4.6-2.3,6.2-2.5,18.5-2.5c12.8,0,20.6,1.3,30.3,5c1.6,0.7,1.7-2.7,1.7-61.8c0-60.6,0.1-62.6,1.9-62.9
		c1.6-0.3,0.5-2.6-7.5-15.8c-5.7-9.3-9.3-16.2-9-17.3c0.3-1.4-0.1-1.7-1.7-1.5c-4.1,0.6-1.9,9.2,4.7,18.8c2,2.9,4.3,7.7,5.2,10.8
		c3.5,12.1-0.1,38.5-5,36.6c-2-0.8-2-0.8,0.3-7c2.6-6.8,3.5-14.2,2.5-20.1l-0.7-4.8l-0.9,5.9c-0.9,6.8-4.3,14.6-6.4,14.6
		c-2.2,0-2.7-2.6-1.1-5.2c3.2-4.9,5-13.2,4.3-19.1c-0.9-6.7-2-7.4-2.4-1.4c-0.3,5.1-5.1,15.1-7.5,15.5c-2.4,0.5-2.1-1,1.2-6.5
		c2.7-4.3,5.2-14.3,3.7-14.3c-0.3,0-1.5,2-2.7,4.4c-2.8,6.1-6.7,10.2-8.2,8.7c-0.8-0.8-0.4-1.8,1.5-3.8c6.1-6.7,8.2-12.8,2.3-6.9
		c-3.3,3.3-7.1,5.3-8.2,4.3c-0.2-0.3,1.8-2.7,4.6-5.4c4.7-4.5,5.1-5.3,5.1-9.5c0-2.4-0.7-6.6-1.4-9.3c-1.3-4.1-1.3-5.3-0.1-8.1
		c1.3-3.1,5.5-6.6,5.5-4.5c0,0.5,0.9,0.7,2,0.4c1.6-0.4,1.9-0.2,1.4,1.1c-0.4,1-0.1,1.6,0.9,1.6c3.9,0,3.1-5.4-1-6.5
		c-1.7-0.4-2.9-0.2-3.4,0.7c-0.6,1-1.8,0.3-4.7-2.5c-3.5-3.5-4-4.6-4.9-11c-0.6-4-0.9-7.4-0.7-7.6c0.1-0.2,3,1.8,6.3,4.4
		c5.1,4,6.1,5.3,7.1,9.5c0.8,3.2,2,5.4,3.6,6.5c1.6,1,2.4,2.5,2.4,4.3c0,1.7,4.2,9.8,11.1,21.5l11.2,18.7h6.1h6.1l-2.4-1.9l-2.4-1.8
		l6.2-0.7c6-0.7,6.1-0.8,5.6-3.4c-0.5-2.3-0.3-2.2,1.2,0.8c1.5,2.8,2.4,3.5,4.8,3.5c3.2,0,3.2,0.1,2-7.5l-0.5-3.5l1.3,3.4
		c2.2,5.7,5.6,5.1,5.7-1c0-3.2-4.6-12.5-6.6-13.3c-1-0.4-2.3,0.3-3.5,1.6c-2.3,2.8-2.5,1.6-0.3-1.7c0.9-1.4,2.3-2.5,3.1-2.5
		c2.5,0,10.4,6.1,12.5,9.6c1.1,1.9,2.4,3.1,2.9,2.8c0.5-0.3,0.9,1.8,0.9,4.6c0,4.4-0.5,5.6-2.9,8.1l-2.9,2.9h5.3h5.4l0.6-4.8
		c1.7-12,6.6-21.1,14.2-26c2.7-1.8,5.5-3.2,6.1-3.2s1.4-0.4,1.7-1c0.9-1.4-1.3-5-3-5c-0.8,0-1.5-0.3-1.5-0.8c0-0.4-1.4-2.3-3-4.2
		c-3.3-3.8-3.7-5-1.7-5c0.6,0,0.3-0.6-0.9-1.3c-6.8-4-8.3-5.4-7.2-6.5c0.8-0.8,0.6-1.1-0.8-1c-2.5,0.1-19.4-6.2-19.4-7.2
		c0-1.4,10.6-2.3,19.1-1.7c9.2,0.6,13.7,2.8,15.3,7.3c0.6,1.7,1.6,2.9,2.3,2.7c3.3-1.2,5.8,10.9,3.9,18.4l-0.8,3.3h7.2h7.2l-0.6-3
		c-0.3-1.7-0.9-4.4-1.2-6c-0.7-3.6,1.2-11.4,3.2-13.1c1.1-0.9,1.4-0.9,1.4,0c0,2.3,1.7,0.1,2.3-2.8c0.7-3.3,3.9-5.9,9-7.2
		c3.4-0.9,24.5-0.4,25.5,0.5c0.3,0.3,0.3,0.9,0,1.2c-1.1,1-16.3,6.7-18.4,6.8c-1.5,0.1-1.9,0.6-1.6,1.8c0.3,1.1-0.1,1.8-1,1.8
		c-0.8,0-2.3,0.9-3.3,2s-2.5,2-3.4,2c-1.3,0-1.3,0.2-0.2,0.9c1.1,0.7,0.8,1.6-1.4,4.5c-1.5,2-4,4.5-5.5,5.6c-4.6,3.3-4.4,5.6,0.5,8
		c9.4,4.5,14.9,12.5,17,24.8c0.7,4,1.5,7.5,1.6,7.6c0.2,0.2,2.4,0.1,4.9-0.3c4.1-0.6,4.5-0.9,4.3-3.4c-0.2-3.5,1-3.4,3.9,0.2
		c2.6,3.3,7.2,5.3,6.2,2.7c-0.3-0.9-1.4-1.6-2.4-1.6c-0.9,0-2.5-0.9-3.5-2c-2.8-3.1-1-6.8,4.8-10.4c4.2-2.6,5.9-3,12-3l7.2-0.1
		l-0.1,4.2c0,2.3-1.2,6.4-2.6,9.2l-2.5,5.1h7.1h7.1l6.3-11c6.2-10.5,6.5-10.9,9.3-10.3c3.6,0.7,3.9-1.3,0.5-2.9l-2.5-1.1l1.9-3.4
		c1.4-2.7,1.6-3.9,0.8-5.3c-1.8-2.8-0.2-6.9,3-7.5c1.5-0.4,3.5-1,4.4-1.5c2.4-1.3,6.8,0.5,6.8,2.8c0,1,0.5,2.3,1.2,3
		c1.8,1.8,10.9,1.5,13.6-0.4c3.2-2.2,4.9-1.2,5.7,3.4c0.8,5.1-0.9,11.4-4,14.9l-2.5,2.8l1.5-3.8c1.5-3.6,1.5-4.1-0.3-7
		c-1.6-2.8-2.3-3.2-5.7-3c-3.1,0.2-4.5-0.3-6.7-2.4c-2.4-2.3-3-2.5-3.8-1.3c-1.3,2.1-0.3,5,3.1,8.5c3.2,3.5,6.4,10.4,5.2,11.5
		c-0.4,0.4-1.8,1.1-2.9,1.4c-1.8,0.5-2.3,0.1-2.9-2.1c-1.5-6.2-4.7-12-7.4-13.6c-3.9-2.3-6.2-2.1-3.2,0.2l2.4,1.8l-7.7,12.7
		c-4.2,7-7.6,12.9-7.6,13c0,0.2,0.9,0.6,2,0.9c2,0.5,2,1.4,2,62.7c0,58.8,0.1,62.2,1.8,61.5c9.6-3.7,17.4-5,30.2-5
		c13.5,0,13.5,0,19.8,3.4c6.6,3.6,12.2,9.2,15,14.8c1.2,2.6,1.3,3.8,0.4,5.8c-1.1,2.3-1,2.5,1.3,2.5c3.5,0,7.7,1.8,10.7,4.7l2.7,2.6
		L431,367z M490.4,390H482v13.5V417h-11.5H459v-49.5V318h21.3c11.6,0,24,0.5,27.5,1c14.2,2.3,22.3,7.5,27.2,17.5
		c2.3,4.5,2.5,6.2,2.5,17.5c0,10.7-0.3,13.2-2.1,17C529.3,384,515,390,490.4,390z M643.5,417c-0.2,0.3-5.5,0.3-11.9,0l-11.7-0.5
		l-4.3-10l-4.3-10h-20.8h-20.9l-4.4,10.2l-4.5,10.2l-11.5,0.3c-6.2,0.2-11.5,0.1-11.7-0.2s0.9-3.5,2.4-7c1.6-3.6,9.9-22.9,18.6-43
		s16.9-39.3,18.3-42.8l2.6-6.3l11,0.3l11.1,0.3l7.4,17C635.6,397.2,643.8,416.5,643.5,417z M636.2,268.8c0.2-1.5,1.3-2.4,3.5-3
		c6.1-1.6,6.3-2.6,6.3-29.9c0-23.3-0.1-24.8-2-27.2c-1.2-1.5-3.6-2.9-5.5-3.3c-2.5-0.4-3.5-1.1-3.5-2.5c0-1.7,0.9-1.9,10.8-1.9
		l10.7,0.1l12.5,14.6c6.9,8.1,16,18.7,20.3,23.6l7.9,9l-0.4-19.1c-0.3-21.3-0.6-22.3-7.6-23.9c-2.2-0.5-3.7-1.5-3.7-2.3
		c0-1.2,2.4-1.6,13.3-1.8c12.5-0.2,13.2-0.2,13.2,1.7c0,1.3-0.9,2.1-2.9,2.6c-5.5,1.2-5.6,1.3-6.1,34.9l-0.5,31.1l-3,0.3
		c-2.8,0.3-4.4-1.4-23.5-24.3c-11.3-13.6-21.3-25.6-22.3-26.8c-1.7-2.1-1.7-1.4-1.5,19.5c0.3,24.1,0.4,24.4,6.9,25.7
		c2.5,0.5,3.5,1.3,3.7,2.9c0.3,2.2,0.2,2.2-13.3,2.2S635.9,271,636.2,268.8z M736.3,404.9c-3.4,3.2-8.7,6.8-13.1,8.9
		c-6.7,3.2-8.5,3.6-17.8,4c-18.1,0.8-28.9-2.8-40.3-13.4c-4.6-4.2-7.2-7.7-10.4-14.2c-4.1-8.4-4.2-8.7-4.5-20.6
		c-0.3-10.4-0.1-13,1.8-18.6c5.4-16.1,19-28.9,35.7-33.5c6-1.7,19.5-1.9,26.5-0.4c2.9,0.6,8.3,2.7,12,4.6c7,3.6,15.8,10.6,15.8,12.5
		c0,0.6-3,4.4-6.6,8.5l-6.6,7.3l-4.5-4.1c-5.8-5.3-12.2-8.1-20.3-8.7c-11.1-0.7-22,5-27.6,14.6c-3.7,6.3-4.6,19.6-1.9,27
		c5.2,13.7,18.3,20.8,33.3,18.1c6.5-1.2,11-3.6,16.5-8.8l3.8-3.6l7,7.5l7,7.5L736.3,404.9z M749.1,266c2.4,0,2.9,0.4,2.9,2.5v2.5
		h-16.5H719v-2.4c0-2.1,0.6-2.5,3.2-2.8c5.4-0.5,5.8-2.4,5.8-29.8c0-27.1-0.4-28.9-5.8-30.5c-2.1-0.6-3.2-1.5-3.2-2.7
		c0-1.7,1.3-1.8,16.5-1.8c15.5,0,16.5,0.1,16.5,1.9c0,1.4-1,2.1-3.5,2.5c-1.9,0.4-3.9,1.5-4.5,2.6s-1,12.4-1,28.4
		C743,265.5,743.1,266,749.1,266z M843,367.4v49.5l-10.6,0.3c-5.8,0.2-10.8,0.1-11-0.1c-0.2-0.2-0.4-9.1-0.4-19.8V378h-19.5H782
		v19.5V417h-11.5H759v-48.8c0-26.9,0.3-49.2,0.7-49.5c0.3-0.4,5.5-0.7,11.5-0.7H782v21v21h19.5H821v-21v-21h11h11V367.4z M837,271
		v-2.4c0-2.1,0.6-2.5,3.2-2.8c5.4-0.5,5.8-2.4,5.8-30c0-13.6-0.4-25.8-1-27.2c-0.6-1.8-1.9-2.7-4.5-3.2c-2.5-0.4-3.5-1.1-3.5-2.5
		c0-1.8,1-1.9,16.5-1.9s16.5,0.1,16.5,1.9c0,1.2-0.9,2-2.9,2.4c-6.1,1.2-6.1,1.3-6.1,30s0.3,30.3,5.8,30.9c1.9,0.2,2.8,0.9,3,2.5
		l0.3,2.3h-16.5H837z M949.6,417l-11.7-0.5l-3.5-8c-1.9-4.4-3.9-9-4.4-10.3l-1-2.2l-20.7,0.2l-20.8,0.3l-4.4,10.2l-4.5,10.3h-11.8
		c-6.5,0-11.8-0.1-11.8-0.3c0-0.4,11.3-26.5,13-30.2c1.3-2.7,24.5-56.6,27.3-63.2l2.2-5.3h11l11,0.1l4.9,11.7
		c4.9,11.7,15,35.1,29.6,68.7c4.3,9.8,7.7,18.2,7.5,18.5S956,417.3,949.6,417z M953,248l-1.5,3.7c-0.9,2.1-1.9,5.7-2.2,7.9
		c-0.6,4.5,0,5.3,5.1,6.4c2.2,0.4,3.1,1.2,3.1,2.5c0,1.9-0.8,2-13,2c-12,0-13-0.1-13-1.9c0-1.2,1.1-2.2,3.4-3
		c1.9-0.6,4.2-2.2,5.3-3.6c1-1.4,6.7-14.9,12.8-30c6-15.1,11.4-28.5,12-29.8c0.7-1.5,1.8-2.2,3.7-2.2c2.6,0,3,0.6,6.2,9.3
		c6.4,17.7,18.2,48.1,19.8,51.1c2,3.8,4.1,5.5,7.1,5.6c1.7,0,2.2,0.6,2.2,2.5v2.5h-15.5H973v-2.5c0-1.8,0.5-2.5,1.9-2.5
		c4.1,0,4.5-2.5,1.6-10.5l-2.7-7.5h-10.4H953z M1003.7,393c6.3,4,12.9,5.3,21.1,4c7.3-1.2,11.7-3.5,17.5-8.9l3.7-3.6l7,7.5l7,7.5
		l-5.7,5.4c-19.3,18.3-50.7,18.3-70.7,0c-10.6-9.6-15.9-22.2-15.9-37.4s4.1-25.2,14.6-36.2c6.3-6.6,16.9-12.7,24.8-14.2
		c7.2-1.4,20.1-1.2,26.4,0.4c3.2,0.9,8.1,2.7,10.9,4.1c5.5,2.8,15.6,10.9,15.6,12.6c0,1-2,3.5-9.7,12.2l-3.5,3.8l-4.1-4
		c-6.4-6.3-12.6-8.7-22.2-8.6c-9.8,0-15.4,2.3-21.8,8.6c-5.4,5.5-7.7,11.7-7.7,21.4C991,379.5,995,387.5,1003.7,393z M1061.4,265.7
		l-1.5,5.3h-26.4H1007v-2.5c0-2.2,0.4-2.5,3.4-2.5c6.3,0,6.6-1.2,6.6-29.7c0-13.8-0.4-26.3-1-27.7c-0.6-1.8-1.9-2.7-4.5-3.2
		c-2.5-0.4-3.5-1.1-3.5-2.5c0-1.8,1-1.9,16.5-1.9s16.5,0.1,16.5,1.9c0,1.3-1,2.1-3.3,2.5c-2.3,0.4-3.8,1.5-4.5,3.2
		c-1.8,3.8-1.6,52.4,0.1,54.8c1,1.3,3.1,1.9,7.8,2.3c5.6,0.4,6.9,0.2,9.9-1.9c1.9-1.3,4.8-4.7,6.3-7.6c1.9-3.4,3.5-5.2,4.7-5.2
		C1065.4,251,1065.4,251.5,1061.4,265.7z M1159.7,416.8l-12-0.3l-4.3-10l-4.2-10l-21-0.3l-20.9-0.2l-4.4,10.4l-4.4,10.5l-11.3,0.3
		c-6.3,0.2-11.6,0-11.8-0.4c-0.4-0.6,8.1-21.1,19-45.8c2.6-5.8,8.8-20.1,13.8-31.8l9.1-21.2h10.9h10.8l1.4,3.2
		c0.7,1.8,6.6,15.4,13.1,30.3c6.4,14.8,15.4,35.7,20,46.3l8.3,19.3L1159.7,416.8z M1114.7,297.3c3.1-4.3,6.7-9.3,8-11.1
		c1.3-1.7,2.7-3.2,3.1-3.2c0.4,0,5.1,1.9,10.6,4.3c5.4,2.3,9.7,4.7,9.5,5.2c-0.1,0.6-4.3,4.3-9.2,8.2l-9,7.3h-10
		C1106.1,308,1106.3,308.6,1114.7,297.3z M1166.9,265.1c-8.4,4.3-13.6,5.1-34.6,5.6l-20.3,0.5v-2.6c0-2.2,0.4-2.6,2.9-2.6
		c6,0,6.1-0.5,6.1-29.6c0-16-0.4-27.3-1-28.4s-2.6-2.2-4.5-2.6c-2.6-0.5-3.5-1.1-3.5-2.6c0-1.9,0.7-1.9,23.8-1.6
		c21.7,0.3,24.2,0.6,29.3,2.6c7.2,2.9,13.7,8.6,16.9,14.8c3.7,7.2,4.1,20.2,0.9,28.7C1180.2,254.4,1173.8,261.5,1166.9,265.1z
		 M1294,367.3c0,27.2-0.2,49.6-0.4,49.8c-0.2,0.2-5.2,0.3-11,0.1l-10.6-0.3l-0.2-30.1l-0.3-30l-13,26.1l-12.9,26.1h-6.9h-6.8
		l-12.9-26.2l-13-26.3v30.3V417h-11.5H1183v-49.5V318h15.3h15.2l12.2,26.2c6.7,14.5,12.5,26.4,13,26.5c0.8,0.3,3.9-6,18.1-36.5
		l7.5-16.2h14.9h14.8V367.3z M1401,416.8l-12.1-0.3l-4.3-10l-4.3-10h-20.8h-20.9l-4.4,10.2l-4.5,10.3h-11.8H1306l2-4.8
		c1-2.6,9.6-22.5,19-44.2c9.4-21.7,18.1-41.9,19.2-44.8l2.1-5.2h10.8c10.8,0,10.9,0,12.3,2.7c0.7,1.6,7.5,17,14.9,34.3
		c7.5,17.3,15.6,36.2,18.2,42c2.5,5.8,5.5,12.7,6.6,15.3l1.9,4.8L1401,416.8z M1390.2,270.8l-20.4,0.5l0.4-2.4
		c0.2-1.8,1-2.5,3.1-2.7c5.5-0.7,5.8-2.3,5.5-31.6c-0.3-28.9-0.1-28-6-29.3c-1.9-0.4-2.8-1.2-2.8-2.5c0-1.9,0.7-1.9,23.8-1.6
		c22,0.4,24.1,0.6,29.4,2.7c12.7,5.2,18.9,14,19.6,28.1c0.3,6.9,0,9.5-1.7,14c-4.3,11.4-11.7,18.2-24.1,22.1
		C1411.6,269.9,1407.1,270.3,1390.2,270.8z M1506.3,404.2c-3,3.1-7.9,6.5-13.2,9.1c-8.2,4.1-8.8,4.2-19.6,4.6
		c-8,0.2-12.9-0.2-17.5-1.3c-17.3-4.4-31.1-18-35.6-35.1c-2.2-7.9-1.8-23.4,0.7-30.8c5.2-15.6,19.3-28.9,35-33.1
		c7.2-1.9,21-2,28.4-0.1c3.3,0.9,8.4,2.8,11.4,4.3c5.8,2.9,15.1,10.6,15.1,12.5c0,0.7-3,4.5-6.7,8.5l-6.6,7.3l-4.1-4
		c-6.3-6.1-12.5-8.6-22.1-8.6c-9.5,0-15.2,2.2-21.3,8.3c-5.9,5.9-7.4,9.5-8,19.5c-0.3,6.8-0.1,9.8,1.3,13.5
		c2.6,6.8,7.5,12.4,13.9,15.6c4.8,2.4,6.8,2.8,13.5,2.8c9.5,0,14.8-2.1,21.6-8.3l4.7-4.3l6.9,7.3l7,7.4L1506.3,404.2z"/>
	<path class="st0" d="M277.1,152.1c1.1-1.4,3.4-3.5,5.2-4.8c1.7-1.3,2.6-2.3,2-2.3s-2.3,1-3.9,2.2c-3.4,2.7-5.3,4.9-5.3,6.3
		C275.1,154,276,153.4,277.1,152.1z"/>
	<path class="st0" d="M237.6,146.1c-0.6,0,0,0.8,1.4,1.7c1.4,0.9,3.5,2.8,4.7,4.1c2.1,2.2,3.2,1.9,1.5-0.4
		C244,149.7,238.8,146,237.6,146.1z"/>
	<path class="st0" d="M146.9,151.6l-4.1-2.9l1.6,3.2c0.9,1.7,1.4,3.6,1.1,4.1c-0.3,0.6,0,1,0.8,1s2.2,1,3,2.2
		c1.6,2.3,1.6,2.3,1.6-1.2C151,155,150.3,154.1,146.9,151.6z"/>
	<path class="st0" d="M272.4,159c2.1-3.6,1.3-4-1-0.5c-0.9,1.4-1.5,2.8-1.2,3C270.4,161.7,271.4,160.6,272.4,159z"/>
	<path class="st0" d="M248.5,157c-0.3,0,0.3,1.6,1.2,3.5c0.9,1.9,1.8,3.3,2.1,3.1C252.2,163.1,249.2,157,248.5,157z"/>
	<path class="st0" d="M288.7,209l-0.9-5.8c-0.4-3.1-1.6-7.7-2.5-10.1c-1.9-5.2-8.2-11.9-13.5-14.4c-4.2-2-14.2-3-17.8-1.8
		c-7.6,2.5-13.3,6.9-17.2,13.2c-1.3,2-4.8,15.5-4.8,18.4c0,0.3,12.8,0.5,28.3,0.5H288.7z M253,195.5c0,3.2-1.5,3.2-3.5,0.1
		c-1.9-2.9-1-5.2,3-8.4c2.9-2.3,6.5-1.8,6.5,0.9c0,1-1.3,2.5-3,3.4C253.9,192.6,253,193.8,253,195.5z M256,201l3.2-4.9
		c2.3-3.4,3.9-4.9,5.5-4.9c1.4,0,2.3,0.7,2.4,1.7c0.4,4.9-2.7,8-7.9,8.1H256z"/>
	<path class="st0" d="M214.9,208.7c0.8-1,0.7-1.4-0.5-1.4c-0.8,0-1.7,0.4-2,0.8C211.6,209.5,213.8,210,214.9,208.7z"/>
	<path class="st0" d="M173,213v91c0,62.3,0.3,92.6,1.1,96.2c2.6,12.5,10,22.6,19.8,27.2c4.2,1.9,6.6,2.1,26.8,2.4l22.1,0.3l-0.1-5.5
		c-0.2-5.1,0.5-6.6,2.9-6.6c0.2,0,0.4,2.2,0.4,5c0,3.3,0.4,5,1.3,5c0.8,0,0.7,0.4-0.3,1c-1.1,0.7-0.6,1,2,0.9c1.9,0,2.9-0.3,2.3-0.6
		c-1.5-0.6-1.7-3.3-0.3-3.3c0.6,0,1,0.4,1,1c0,0.5,0.7,1,1.5,1c2.2,0,1.8-3.1-0.5-3.7c-1.4-0.4-2-1.4-2-3.5c0-2.7,0.2-2.9,3.3-2.6
		c1.7,0.2,3,0.7,2.7,1.3c-0.3,0.5-1.3,0.9-2.2,0.8c-1-0.2-1.8,0.4-1.8,1.2s0.9,1.5,2,1.5c2.6,0,3.7,2.7,2.1,5.1
		c-1.1,1.8-0.7,1.9,6.6,1.8c4.3,0,7.2-0.3,6.6-0.6c-1.3-0.5-1.8-3.3-0.7-3.3c0.4,0,1.3,0.8,2,1.7c1.2,1.7,1.3,1.7,2-0.1
		c0.5-1.2,0.2-2.3-0.9-3c-1.4-1.1-1.4-1.3,0.1-2.2c0.9-0.6,1.2-1.5,0.8-2.3c-0.7-1.1-1-1.1-1.7,0c-0.4,0.7-1.1,1-1.4,0.7
		c-1.1-1.1,0.5-2.8,2.4-2.8c2.6,0,4.7,2.8,3.3,4.2c-0.8,0.8-0.7,1.6,0.1,2.8c0.8,1.4,0.8,2.2-0.3,3.5c-1.3,1.5,0.4,1.6,22.6,1.3
		c23.8-0.3,23.9-0.3,29.6-3.1c6.4-3.1,10.7-7.5,14.3-14.7c5-9.9,5.5-14.5,5.5-54.5c0-22.2-0.4-37.6-1-38.5c-0.6-0.9-1-1-1-0.3
		c0,4.1-9,6-11,2.4c-1.5-2.9-1.2-6.2,0.8-7.7c2.8-2.2,6.8-1.7,9,1.1c1.1,1.4,2.3,2.5,2.6,2.5c0.3,0,0.6-23.4,0.6-52v-52h-87.5H173z
		 M215.3,223.3c-0.7-0.3-2.2-1.2-3.4-2.2c-1.8-1.5-2-2.1-1-3.9c1.4-2.6,7.1-3.2,7.1-0.7c0,1.8-1.7,2-2.2,0.3
		c-0.3-0.7-0.9-0.8-1.8-0.3c-1,0.6-0.5,1.5,2,3.5c2.9,2.3,3.1,2.9,2.1,4.8c-1.3,2.4-6.4,3.1-7.6,1.1c-1.1-1.7,0.3-2.3,2-0.9
		c1.3,1.1,1.8,1.1,2.8,0C216.2,224,216.2,223.7,215.3,223.3z M175,273.2c0-4,1.1-5.4,2.5-3.2c0.3,0.5,1.5,1,2.5,1
		c1.3,0,1.7,0.5,1.4,1.5c-0.4,1,0,1.5,1.5,1.5c1.2,0,2.1-0.6,2.1-1.5c0-0.8-0.4-1.5-1-1.5c-0.5,0-1-0.5-1-1c0-0.6,0.7-1,1.5-1
		c1.1,0,1.5,1.1,1.5,4.2v4.3h-5.5H175V273.2z M179.8,283.9c4.2,0.2,5.2-0.1,5.2-1.3c0-0.9-0.4-1.6-1-1.6c-0.5,0-1-0.5-1-1
		c0-0.6,0.7-1,1.5-1c1.1,0,1.5,1.1,1.5,4.2v4.3h-5.5c-3,0-5.6-0.3-5.6-0.8C174.3,283.9,174.7,283.6,179.8,283.9z M186,294.9v3.6
		h-5.5h-5.6l0.3-4c0.3-3.7,0.5-4,3.1-3.8c1.5,0.1,2.7-0.2,2.7-0.8c0-1.3,2.4-1.1,3.8,0.3C185.5,290.9,186,293,186,294.9z
		 M180.4,301.5c4.9,0,5.6,0.2,5.6,2c0,1.7-0.7,2-5.2,2c-3.8,0-5.5-0.4-5.9-1.5C173.9,301.7,174.4,301.5,180.4,301.5z M180.8,370.5
		c-3.8,0-5.5-0.4-5.9-1.5c-1-2.3-0.5-2.5,5.5-2.5c4.9,0,5.6,0.2,5.6,2C186,370.2,185.3,370.5,180.8,370.5z M181.4,361.8
		c1.6,0.2,3.3-0.2,3.7-1c0.6-0.9,0.9-0.4,0.9,1.6c0,2.4-0.2,2.7-1.5,1.6c-0.8-0.7-3.2-1-5.5-0.8c-3.2,0.3-4,0-4-1.3
		c0-1,1.2-2.7,2.8-3.9l2.7-2.1l-2.7,0.4c-2.1,0.3-2.8,0-2.8-1.2c0-1.3,1-1.5,5.5-1.3c3.3,0.2,5.5,0.8,5.5,1.5s-1.7,2.3-3.7,3.7
		l-3.7,2.5L181.4,361.8z M180.8,349.1c-4.7-0.3-5.1-0.2-3.9,1.3c1.1,1.4,1.1,1.6-0.2,1.6c-1.7,0-2.4-2.9-1.8-7.3
		c0.2-1.6,0.9-2.7,1.8-2.7c1.3,0,1.3,0.3,0.2,1.6c-1.2,1.5-0.8,1.6,3.9,1.3c5-0.4,5.2-0.3,5.2,2.1S185.8,349.5,180.8,349.1z
		 M181.4,327.8c1.6,0.2,3.2-0.2,3.7-1s0.9,0.7,0.9,3.9c0,4.2-0.3,5.3-1.6,5.3c-0.9,0-1.4,0.7-1.2,1.7c0.2,1,0.9,1.8,1.6,1.8
		c0.6,0,1.1,0.4,1,1c-0.3,1.1-0.6,1.1-6.6-1.1c-2.4-0.9-4.1-2.1-3.9-2.8c0.2-0.6,2.4-1.8,4.8-2.7c2.5-1,4.5-2.4,4.7-3.4
		c0.3-1.5-0.3-1.7-4.7-1.4c-4.3,0.3-5.1,0.1-5.1-1.3c0-1,1.1-2.5,2.5-3.4c1.4-0.9,2.5-2,2.5-2.5c0-1.4-3.8-1.1-4.3,0.3
		c-0.3,0.7-0.6,0.4-0.6-0.7c-0.1-1.8,0.4-2,5.4-1.7c3.3,0.2,5.5,0.8,5.5,1.5s-1.7,2.3-3.8,3.7l-3.7,2.5L181.4,327.8z M176.1,316.1
		c-2.5-2.5-2.8-6.9-0.6-7.8c2.3-0.8,3.3,0.7,1.3,1.8c-4,2.2,2.2,6,6.2,3.9c2.9-1.5,2.5-3.3-0.5-2.6c-2,0.5-2.5,0.3-2.5-1.2
		c0-2.5,0.6-3,3.4-2.5c1.5,0.3,2.6,1.4,2.9,2.9C187.4,316.7,180.5,320.5,176.1,316.1z M262.4,429c-1.8,0-1.8-0.3,0.6-4.2
		c2.5-4.2,2.5-5-0.2-4.6c-1.1,0.2-2.3-0.3-2.5-1c-0.3-0.8,0.7-1.2,3-1.2c1.8,0,3.6,0.3,3.9,0.6C268.2,419.6,263.8,429,262.4,429z
		 M342.8,364c-2.5,1.3-3.1,1.3-5.5,0c-2.2-1.3-2.8-2.3-2.8-5c0-5.3,5.8-7.4,10.3-3.7C347,357.1,345.8,362.3,342.8,364z M342.9,352.5
		c-0.6-0.5-0.4-1.2,0.8-2c2.6-1.9,0-4.7-4-4.3c-3.6,0.4-6,3.4-3.7,4.8c0.8,0.5,1.1,1.2,0.8,1.5c-0.4,0.4-1.1,0.4-1.7,0
		c-1.5-0.9-1.4-6.8,0.1-8.3c1.7-1.7,6.8-1.5,9,0.5C347.2,347.4,346.1,354.4,342.9,352.5z M340.1,325c2.8,0,4.1,0.5,4.9,1.9
		c0.5,1.1,1,3.1,1,4.5c0,2-0.5,2.6-2.2,2.6c-2.1,0-2.1,0-0.3-1.4c1.6-1.2,1.7-1.6,0.6-3c-2.2-2.6-9.1-1.8-9.1,1
		c0,1.7,2.2,1.8,3.8,0.2c0.9-0.9,1.2-0.6,1.2,1.6c0,2.4-0.3,2.7-2.7,2.4c-2.4-0.2-2.9-0.8-3.1-3.6C333.8,326.8,335.4,325,340.1,325z
		 M336.6,337c1.5,0.6,4.2,0.8,6,0.4c3-0.5,3.4-0.4,3.4,1.5c0,1.9-0.6,2.1-6,2.1c-5.7,0-6-0.1-6-2.5C334,336.3,334.2,336.1,336.6,337
		z M341.8,306.4c-5.3-0.6-8.2,0.9-5.6,3c2,1.4,1.4,2.8-0.8,1.9c-0.9-0.3-1.4-2-1.4-4.7v-4.1l6,0.3c5.1,0.3,6,0.7,6,2.3
		C346,306.7,345.4,306.9,341.8,306.4z M334,295.7c0-5.1,6.3-7.6,10.2-4c2,1.8,2.3,4.5,0.8,7.4c-0.8,1.4-2.1,1.9-4.8,1.9
		C335.6,301,334,299.6,334,295.7z M334,270h6h6v4c0,2.9-0.4,4-1.5,4c-0.8,0-1.5-0.5-1.5-1c0-0.6,0.5-1,1-1c0.6,0,1-0.5,1-1
		c0-0.6-0.9-1-2-1c-1.1,0-2,0.7-2,1.5c0,2.2-1.7,1.8-2.3-0.5c-0.3-1.3-1-1.8-2.1-1.4c-1.7,0.7-2.2,3.4-0.6,3.4c0.6,0,1,0.4,1,1
		c0,0.5-0.7,1-1.5,1c-1.1,0-1.5-1.2-1.5-4.5V270z M336.2,280.6c2.8-2,4.8-2,7.6,0c3,2.1,2.8,7.7-0.3,8.2c-1.9,0.3-1.9,0.2-0.2-1.1
		c2.8-2.3,1.1-4.7-3.4-4.7c-4.3,0-6,2-3.9,4.5c1,1.2,0.9,1.5-0.4,1.5C333,289,333.5,282.5,336.2,280.6z M333,305.3
		c0,50.5-0.4,78.3-1.1,82.3c-1.5,8.4-6.2,17.6-11,21.8c-7.7,6.6-7.9,6.6-61.3,6.6h-48.1l-5-2.4c-2.7-1.3-6.4-3.9-8.2-5.7
		c-4.1-4.4-8.1-13.2-9.3-20.6c-0.6-3.3-1-38.5-1-82.1V229h72.5H333V305.3z M305.1,216c2.4,1.3,2.6,7.2,0.3,9.4
		c-3.3,3.4-9.4,0.7-9.4-4.2C296,216.2,300.6,213.6,305.1,216z M271.5,215.3c0.5,0.2,1.8,2.7,2.9,5.6c1,2.8,2.4,5,3,4.8
		c0.6-0.2,1.1-2.6,1.1-5.5V215h3.6c4,0,6.9,2.4,5.1,4.2c-0.7,0.7-0.7,1.9,0,4c1.6,4.4,3.3,2.8,3.3-3c0-4.5,0.3-5.2,2-5.2
		c1.8,0,2,0.7,2,6v6h-4.7c-4.2,0-4.8-0.3-5.4-2.5c-0.3-1.4-1.1-2.5-1.6-2.5c-0.6,0-0.7,1.1-0.4,2.5c0.6,2.4,0.5,2.5-4.9,2.5
		c-4.8,0-5.5-0.2-5.5-2c0-1.3-0.5-1.8-1.5-1.4c-0.8,0.4-1.5,1.2-1.5,2c0,0.8-0.7,1.4-1.6,1.4c-0.9,0-1.4-0.4-1.2-0.8
		c0.2-0.4,1.2-3.1,2.3-6C269.5,217.3,270.9,215.1,271.5,215.3z M262.8,215.7c-0.7-0.3,0.1-0.5,1.7-0.5c1.7,0,2.4,0.2,1.8,0.5
		c-0.8,0.3-1.3,2.2-1.3,4.7c0,4.6-1.3,6.6-4.5,6.6s-4.5-2-4.5-6.7c0-4.1-1.2-5.7-2.4-3.1c-0.5,1-0.7,1-1.2,0c-0.3-0.6-1-1.2-1.6-1.2
		c-0.7,0-0.9,2.1-0.6,5.5c0.4,5.1,0.3,5.5-1.7,5.5s-2.1-0.4-1.7-5.7c0.5-5.5,0.4-5.7-1.3-4.3c-1.4,1.1-1.9,1.2-2.2,0.2
		c-1.1-3-2.3-0.7-2.3,4.3c0,3-0.3,5.5-0.7,5.5c-0.5,0-1.9-1.7-3.2-3.8c-2.5-3.7-2.5-3.7-3.1-1.2c-0.3,1.4-0.3,2.6,0.2,2.8
		c2.4,1,0.1,2.2-4.3,2.2c-4,0-5-0.3-4.6-1.4c0.3-0.8-0.1-1.7-1-2c-0.9-0.4-1.7,0.1-2,1.4c-0.3,1.1-1.2,2-2,2s-1.3-0.3-1.1-0.8
		c0.8-1.5,2.6-5.8,3.7-8.5c1.5-3.8,2.6-3.4,4.1,1.5c2.7,8.6,5.3,9.2,4.8,1.3c-0.2-4.6,0-5.5,1.4-5.5c0.9,0,2.8,1.5,4.2,3.2
		c2.2,2.8,2.6,3,2.6,1.3c0-1.2-0.5-2.6-1.2-3.3c-0.9-0.9,1.2-1.2,9.8-1.2h10.9l-0.3,4.5c-0.3,3.5,0,4.6,1.3,5.1
		c1,0.4,2.1,0.1,2.6-0.7C264.4,221.8,264.2,216.2,262.8,215.7z"/>
	<path class="st0" d="M223.4,219c-0.2,0-0.4,0.7-0.4,1.5s0.4,1.5,1,1.5c0.5,0,0.7-0.7,0.4-1.5C224,219.7,223.6,219,223.4,219z"/>
	<path class="st0" d="M283.2,219.8c1.8-0.6,2-2.5,0.3-3.1c-1-0.5-1.5,0-1.5,1.4C282,219.3,282.5,220,283.2,219.8z"/>
	<path class="st0" d="M269.9,222c0.6,0,1.1-0.5,1.1-1c0-0.6-0.2-1-0.4-1c-0.3,0-0.8,0.4-1.1,1C269.2,221.5,269.4,222,269.9,222z"/>
	<path class="st0" d="M302.6,224.9c1.8-1.5,1.6-8-0.3-8.7c-0.7-0.2-1.8,0.7-2.3,2c-0.8,1.7-0.8,3.2,0,5.2
		C300.9,225.8,301.3,226,302.6,224.9z"/>
	<path class="st0" d="M205.4,298c-1.9,0-2.3-0.6-2.6-3.8s-0.7-3.7-3-4c-2.7-0.3-2.8-0.2-2.8,4.8c0,4.8-0.2,5.2-3,6.1
		c-1.6,0.6-3,1.5-3,2c0,1.2,0.8,1.1,7-0.2c7.5-1.6,8-0.9,8,11.8c0,6.7,0.4,10.2,1,9.8c0.6-0.4,1-5.7,1-12.6c0-11.7,0-12,2.5-13.1
		c2-0.9,2.5-2,3.1-7c0.4-3.2,1.2-6.2,1.8-6.6c0.6-0.4,4.8-2.1,9.4-3.7l8.4-3l7.2-12.5c12.6-21.8,18.6-32.6,18.6-33.3
		c0-0.4-15.3-0.7-34-0.7h-34v26.5V285l6.8,0.1c3.7,0.1,8.1,0.4,9.7,0.8c2.7,0.6,3,1,3.3,5.1C211.2,295.9,209.5,298,205.4,298z"/>
	<path class="st0" d="M271.5,250.5c7.6,13.5,7.6,13.5,8.2,11.7c0.3-0.7,2.3-1.2,5-1.2h4.6l-0.5,7.7c-0.3,4.3-0.2,8.9,0.3,10.3
		c0.7,2.4,0.7,2.4,0.8,0.2c0.1-2,0.6-2.2,6.4-2.4c3.4-0.1,8.9-0.1,12.2-0.1c5.9,0.2,5.9,0.2,2-0.8c-4.7-1.2-6-1.2-13.7-0.3
		c-4.8,0.5-5.9,0.4-6.4-1c-1.1-2.9,0.7-6.9,5.2-11.4c4.3-4.4,4.5-4.4,9.9-4c3.9,0.3,6.2,1.1,7.9,2.7c2.9,2.7,7,11.7,6.2,13.7
		c-0.3,0.8-0.1,1.4,0.5,1.4c0.6,0,1-1.8,0.9-4.3c-0.2-2.3-0.2-5.9-0.1-8c0.1-3.7,0.2-3.7,4.4-3.8l4.2-0.2l-4-0.6
		c-4.7-0.7-5.7-3.1-2.6-5.8c2.3-1.9,2.8-5.3,0.9-5.3c-0.9,0-0.8-0.4,0.2-1c2.4-1.5,3.2-1.2,2.9,1.2c-0.2,1.3,0,2.9,0.4,3.6
		c1.8,2.8,2.7-0.5,2.7-10.4V232h-34.6h-34.6l2,3.2C263.8,237,267.8,243.9,271.5,250.5z M282.2,253.3c1.6-1.7,1.9-2.6,1.1-3.4
		c-0.9-0.9-0.8-1.5,0-2.4c1.5-1.6,2.6,0,1.9,2.7c-0.3,1.2,0.3,2.5,1.7,3.4c1.2,0.9,2.1,2.6,2.1,4c0,2.2-0.4,2.4-4.5,2.4
		c-4,0-4.5-0.3-4.5-2.2C280,256.6,281,254.6,282.2,253.3z"/>
	<path class="st0" d="M235.5,281c-12,21.2-23.3,41.1-25.2,44.2c-1.9,3.2-3.2,6.2-2.8,6.8c0.3,0.5,2.2,1.2,4.3,1.5
		c7.1,1.2,12.7,3.6,16,6.8c3.2,3.1,3.6,3.2,10.4,2.9c4.6-0.1,7.6,0.2,8.6,1c1.3,1.1,1.5,0.8,0.9-2.7c-0.4-2.2-0.4-5-0.1-6.3
		c0.7-2.4,3.4-3.1,3.4-0.7c0,1.2,0.5,1.3,2.4,0.3c4.2-1.9,5.9-0.4,5.2,4.5c-0.6,4-0.5,4.3,2.4,5.5c1.7,0.8,3.7,1.1,4.5,0.8
		c2.1-0.8,1.9-3.8-0.2-3.4c-2,0.3-2.9-2.8-1.9-6.8c0.5-1.9,1.3-2.4,4-2.4c4.5,0,7,2.4,6.2,6.2c-0.3,1.5-0.9,4.3-1.2,6l-0.7,3.3
		l3.5-3.3c3.7-3.5,6.8-4,10.8-1.7c1.4,0.8,2.8,1.4,3.1,1.5c1.2,0,2.1-13,1-14.4c-0.6-0.7-0.7-1.6-0.3-2.1c0.7-0.8-1.9-0.3-5,1
		c-1.1,0.4-1.8,0.3-1.8-0.4c0-0.6,1.1-1.3,2.5-1.7c3.5-0.9,5-3,2.9-4.2c-0.9-0.5-1.5-1.5-1.3-2.1c0.3-0.9,1.3-0.6,3.2,0.9
		c2.2,1.8,2.7,2.9,2.7,6.6c0,2.4,0.4,4.4,0.9,4.4c1.4,0,7.1-3.4,7.1-4.3c0-1,4.2-0.9,5.9,0.2c1.1,0.7,1,1.1-0.7,2
		c-1.8,1-2,1.5-1.1,3.8c0.7,2,0.6,3-0.5,4.1c-1.3,1.3-1.8,1.3-3.1,0.2c-0.9-0.8-1.4-2.2-1.2-3.2c0.4-1.4-0.1-1.8-2.2-1.8
		c-3,0-4.7,2.1-5.6,7.3c-0.9,4.8,0.7,5.4,6,2.3c2.4-1.5,5.9-2.6,7.9-2.6c2.6,0,4-0.6,5-2.3c3.2-4.9,3-7-1.9-15.3
		c-2.6-4.3-6.1-10.4-7.8-13.4c-3-5.5-26.6-46.9-35.9-63.3c-2.8-4.8-5.2-8.7-5.4-8.7c-0.2,0-1,1-1.7,2.2
		C257.9,241.5,247.5,259.8,235.5,281z M296.5,313c0.3,0.5,0.2,2.6-0.4,4.5l-0.9,3.5l4-0.7c3-0.4,3.9-0.3,3.4,0.5
		c-0.4,0.7-1.3,1.2-2.1,1.2c-2.3,0-2.8,2-1,3.4c1.6,1.2,1.5,1.4-1.1,3.5l-2.9,2.3l-0.8-3.9C292.7,317.8,293.9,308.7,296.5,313z
		 M252.3,263.1c3,0,3.1,0.1,1,1.1c-1.7,0.8-2.3,2-2.3,4.5c0,1.8-0.4,3.3-1,3.3c-0.5,0-1-2-1-4.5C249,263.1,249.1,263,252.3,263.1z
		 M272.5,323c-0.2,8.3-0.3,8.5-2.6,8.3c-1.3-0.1-6.8-0.3-12.1-0.4c-11.1-0.3-10.5,0.2-10.7-9.6l-0.1-6.1l3.2,3.1
		c2.1,2.1,3.2,4.2,3.3,6.2c0,1.9,0.6,3.1,1.6,3.3c1.2,0.2,1.5-0.6,1.4-3.9c-0.1-3.6-0.5-4.3-3.3-5.5c-3.5-1.4-4.1-3-1.4-3.7
		c3.2-0.9,3.9-0.7,6.5,1.3c3.3,2.6,5.1,2.5,6.9-0.2c1.3-2,1.7-2.1,3.2-0.9c1,0.8,1.5,2.3,1.3,3.3c-0.8,2.9,1,2.1,2.1-1
		C272.5,315.2,272.6,316.7,272.5,323z M264.6,254.5c1,0.8,2.6,1.5,3.6,1.5c1.3,0,1.8,1.5,2.3,7.5c0.4,4.2,0.5,8.9,0.2,10.5
		c-0.4,1.7-0.2,3,0.5,3.2c0.7,0.3,1.2,3.4,1.3,8.2c0.2,8.8,0,9.1-8.3,10.2c-2.9,0.3-5.2,1.1-5.2,1.7c0,0.6,2.1,0.7,5.6,0.3
		c7.4-0.9,8.4,0,8.4,7.8c0,7.8-0.8,9.2-4.6,7.9c-2.2-0.8-2.9-1.6-2.9-3.7c-0.1-3.2-2.4-4.9-6.3-4.4c-2.4,0.3-2.7,0.7-2.7,3.8
		c0,3.3-0.2,3.5-4.2,4.1l-4.3,0.5l-0.1-6.8c-0.1-3.7-0.2-7.4-0.3-8.1c-0.1-0.7,0.8-1.1,2.2-0.9c2.9,0.4,2.8-1.3-0.2-3.3
		c-2.1-1.4-2.3-2.3-2.4-9c0-4.1,0.4-7.5,0.9-7.5s0.9,1.9,0.9,4.2c0,5.8,0.9,8.8,2.5,8.2c0.7-0.3,1.5,0.4,1.8,1.5
		c0.5,2.2,3.1,2.8,4.2,1.1c0.3-0.6,0.2-1-0.3-1s-0.7-1-0.5-2.3c0.4-1.7,1.1-2.2,3.9-2.3c3.6-0.1,4.1,0.5,2.2,2.4
		c-0.9,0.9-0.8,1.2,0.5,1.2c2.5,0,2.2-4.6-0.3-6c-1.3-0.7-2-2.1-2-4c0-3-0.2-3.1-8.8-4.3c-0.7-0.1-1.3-0.7-1.2-1.2c0-0.6,3.4-1,8-1
		c4.4,0,8-0.3,8-0.8c0-0.4-2-0.7-4.4-0.7c-2.5,0-4.7-0.4-5.1-0.9c-0.9-1.6,1.1-2.1,4.6-1.1c1.8,0.5,3.6,0.6,4,0.2
		c1.4-1.4-0.3-6-2.4-6.7c-2-0.6-2-0.7,1.1-2.1c3.3-1.5,4.6-5.4,1.7-5.4c-0.8,0-2.4-0.5-3.4-1.2c-1.5-0.9-2.5-0.9-4.6,0
		c-1.4,0.7-3.5,1.2-4.6,1.2c-1.1,0-2.4,1-2.9,2.2c-0.9,2.3-0.9,2.3-0.9-0.2c-0.1-2.1,0.7-2.8,4.7-4.1
		C261,252.8,262.3,252.7,264.6,254.5z M252.5,280c0.3-0.6,1.2-1,2-1s1.7,0.4,2,1c0.4,0.6-0.5,1-2,1S252.1,280.6,252.5,280z"/>
	<path class="st0" d="M265,280c0,0.5,0.9,1,2.1,1c1.1,0,1.7-0.5,1.4-1c-0.3-0.6-1.3-1-2.1-1C265.6,279,265,279.4,265,280z"/>
	<path class="st0" d="M283.9,263c-0.5,0-0.9,0.7-0.9,1.5s0.7,1.5,1.5,1.5c0.9,0,1.2-0.6,0.9-1.5C285,263.7,284.4,263,283.9,263z"/>
	<path class="st0" d="M326,266.5c0.6-0.3,1-1.3,1-2.1c0-0.8-0.4-1.4-1-1.4c-0.5,0-1,0.9-1,2.1C325,266.2,325.5,266.8,326,266.5z"/>
	<path class="st0" d="M302.6,265.6c-0.4,1-0.3,2.1,0.2,2.6c1.3,1.3,4.3-0.2,4-2.1C306.4,263.9,303.4,263.5,302.6,265.6z"/>
	<path class="st0" d="M286.4,270c0.9,0,1.6-0.7,1.6-1.5s-0.2-1.5-0.4-1.5s-0.9,0.7-1.6,1.5C285,269.7,285,270,286.4,270z"/>
	<path class="st0" d="M324,270c-0.5,0-1,0.5-1,1.1c0,0.5,0.5,0.7,1,0.4c0.6-0.3,1-0.8,1-1.1C325,270.2,324.6,270,324,270z"/>
	<ellipse class="st0" cx="326" cy="279" rx="1" ry="5"/>
	<path class="st0" d="M298,285c-3.3,0-6,0.4-6,1s6.8,1,18.5,1s18.5-0.4,18.5-1s-4.5-1-11.5-1c-11.2,0-11.4,0-11.3-2.3
		c0.2-4-0.2-5.7-1.2-5.7c-0.5,0-1.1,1.2-1.1,2.7c-0.1,1.6-0.1,3.4,0,4C304,284.6,302.3,285,298,285z"/>
	<path class="st0" d="M225.4,292c2.2-2.3,2.4-5.4,0.4-5.8c-1.5-0.3-1.8,0.4-1.8,3.4C224,292.9,224.2,293.2,225.4,292z"/>
	<path class="st0" d="M220,291c0-3.4-1.5-4.7-2.8-2.4c-0.5,0.9-0.7,2.6-0.4,3.9C217.4,295.8,220,294.5,220,291z"/>
	<path class="st0" d="M320.3,314h-9.8v-9.9c0-5.5-0.2-10.1-0.5-10.4s-1.9-0.8-3.7-1.1c-2.5-0.6-3.6-0.3-5.2,1.3
		c-1.2,1.2-2.1,2.7-2.1,3.4s2,4.8,4.5,9.1c2.5,4.4,4.5,8.3,4.5,8.8c0,0.4,5,0.8,11,0.8c6.7,0,11-0.4,11-1S326.1,314,320.3,314z"/>
	<path class="st0" d="M211.5,316.6c0.9-1.2,1.5-4.2,1.5-7.8c0-5.4-0.7-6.8-2.3-5.1c-0.4,0.3-0.7,3.8-0.7,7.7
		C210.1,317.9,210.2,318.3,211.5,316.6z"/>
	<path class="st0" d="M195.3,306.3c-0.7-0.3-1.5,0.6-1.8,1.9s-0.5,5.7-0.3,9.8c0.3,6.2,0.6,7.5,2.1,7.8c1.6,0.3,1.7-0.5,1.5-9.4
		C196.6,309.9,196.1,306.5,195.3,306.3z"/>
	<path class="st0" d="M201,306c-0.6,0-1.3,0.6-1.6,1.3c-1,2.8,0.1,18,1.4,18.5c0.9,0.3,1.2-2.1,1.2-9.7C202,309.8,201.6,306,201,306
		z"/>
	<path class="st0" d="M320.5,320c-8,0-9.3,0.2-8.9,1.5c0.5,1.2,2.5,1.5,9.5,1.5c7.2,0,8.9-0.3,8.9-1.5S328.3,320,320.5,320z"/>
	<path class="st0" d="M322.8,326.2c-3.6-0.2-6.9,0.1-7.2,0.6c-1.2,2,2.4,3.3,8.1,3c4.4-0.2,5.8-0.7,5.8-1.8
		C329.5,326.8,328,326.4,322.8,326.2z"/>
	<path class="st0" d="M191.4,351.9c0.8-0.9,12.6-21.8,12.6-22.3c0-0.6-4.3-0.6-9.7,0.1l-3.3,0.4v11.1
		C191,347.3,191.2,352.1,191.4,351.9z"/>
	<path class="st0" d="M319,333.7c0.1,2.6,3.1,4.4,6.7,4.1c3.1-0.2,3.9-0.7,4.1-2.6c0.3-2.1,0-2.2-5.2-2.2
		C321.5,333,319,333.3,319,333.7z"/>
	<path class="st0" d="M327,341c-1.6,0-3,0.3-3,0.7c0,1.4,4.5,9.3,5.2,9.3c0.5,0,0.8-2.3,0.8-5C330,341.1,329.9,341,327,341z"/>
	<path class="st0" d="M191,356v13.9v13.9l5.3,0.4c6.5,0.5,6.7,0.5,9.7-3.7c3.5-4.8,8.1-5.7,11.8-2.3c5.6,5.2,8.6,6.5,15.4,7l6.8,0.6
		l3.5-4.8c2-2.7,5.2-6.3,7.2-8l3.7-3.2l9,0.6c8.7,0.6,9.4,0.5,15.4-2.4c7.4-3.5,13.2-3.9,20.8-1.4c6.7,2.3,8.1,3.8,9.4,10
		c0.6,2.9,1.5,5.6,2,5.9s1.7-0.6,2.8-2c2.5-3.2,2.8-3.1,4.7,0.5c1.4,2.7,2,3,6.5,3h5v-14v-14h-69.5H191z M216.5,362.8l4.2,0.6
		c2.4,0.3,4.4,0.2,4.8-0.4c0.3-0.5,1.2-1,2-1c0.9,0,0.6,0.8-1,2.4l-2.4,2.4l-3.8-2L216.5,362.8z M228.4,373.5
		c-2.2,2.2-2.8,2.4-3.7,1.1c-0.7-0.8-2.1-1.7-3.2-1.9c-1.1-0.3-0.3-0.3,1.7-0.2c2.3,0.2,4.2-0.2,4.9-1.1c1.1-1.3,2.9-1.9,2.9-0.9
		C231,370.7,229.8,372.1,228.4,373.5z M241.9,375.1c-1.8,1.8-2.5,2-4,1c-1-0.6-2.9-1.1-4.1-1.1c-1.7,0-1.9-0.3-1-1.2
		c0.9-0.9,2-1,4-0.2c2.1,0.8,3.1,0.7,4-0.3c1.3-1.3,3.2-1.8,3.2-0.8C244,372.8,243,374,241.9,375.1z"/>
	<path class="st0" d="M324.8,387.2c-2.3-0.3-2.8,0.1-2.8,1.7c0,2.1-0.2,2.1-42.4,2.1c-34.8,0-42.5-0.2-42.9-1.4
		c-0.4-1.1-4.1-1.2-19.6-0.8c-13.9,0.3-19.1,0.2-19.1-0.7c0-0.6-1.4-1.1-3-1.1c-2.8,0-3,0.2-2.4,2.7c2.3,9.8,7.7,17.4,15,20.8
		l5.4,2.6l48.8-0.3c53.9-0.3,51.2,0,58.1-7c4.3-4.3,7.1-9.9,7.4-14.6C327.5,387.8,327.2,387.5,324.8,387.2z"/>
	<path class="st0" d="M176,272.4c0,0.9,0.7,1.6,1.6,1.6c0.9,0,1.4-0.5,1.2-1.2C178.2,271,176,270.7,176,272.4z"/>
	<ellipse class="st0" cx="177.5" cy="294" rx="1.5" ry="1"/>
	<ellipse class="st0" cx="183" cy="294" rx="2" ry="1"/>
	<path class="st0" d="M343.4,294.3c-1.8-1.3-3.4-1.5-6.7-0.6c-1,0.3-1.7,1.2-1.5,2.1c0.4,2.1,6.3,2.9,8.5,1.1
		C345,295.7,345,295.5,343.4,294.3z"/>
	<path class="st0" d="M180.4,337.1c-1.1,0-1.4,0.3-0.6,0.6c0.7,0.3,1.6,0.2,1.9-0.1C182.1,337.3,181.5,337,180.4,337.1z"/>
	<path class="st0" d="M335.5,358c-1.2,1.9,1,3.2,5.1,2.8c2.7-0.2,3.9-0.8,3.9-1.8C344.5,357.1,336.6,356.3,335.5,358z"/>
	<path class="st0" d="M343.6,316.5c-2-1.5-3.5-1.7-6.9-0.8c-1,0.3-1.7,1.2-1.5,2.1c0.4,2,6.5,2.8,8.8,1.2
		C345.3,318.1,345.2,317.8,343.6,316.5z"/>
	<path class="st0" d="M137.4,338c9.8,0,15.6,1.2,25.3,5.4c3.4,1.4,6.5,2.6,6.8,2.6c0.4,0,0.5-1.9,0.3-4.2c-0.3-4.1-0.5-4.3-5.3-6.1
		c-12.4-4.6-31.8-6.1-40.5-3c-9.3,3.2-19.9,13.8-18.5,18.4c0.7,2,2.5,2.7,2.5,0.9c0-0.6,2.2-3.3,4.9-6
		C119,339.9,124.8,338,137.4,338z"/>
	<path class="st0" d="M415.4,351.4c1.4-3.6-7.4-13.8-15.4-17.6c-3.6-1.8-6.5-2.3-15-2.5c-6-0.1-13.3,0.4-17,1.1
		c-3.6,0.8-8.7,2.3-11.5,3.3c-4.9,1.8-5,2-5.3,6.2c-0.3,3.3,0,4.2,1,3.8c0.7-0.3,4.9-2,9.3-3.8c7-2.8,9.5-3.3,19.2-3.7
		c16.1-0.6,24.9,2.6,30.6,11.4C413.8,353.4,414.5,353.7,415.4,351.4z"/>
	<path class="st0" d="M160.7,352.4c-7.1-3.4-8.6-3.7-18.5-4c-5.9-0.2-11.1-0.2-11.7,0c-0.5,0.2-2.2,0.7-3.6,1
		c-3.2,0.7-14.9,9.3-14.9,10.9c0,0.7,0.5,1.9,1,2.7c0.8,1.2,1.4,0.9,4-1.7c4.7-4.8,8.8-6.3,17.2-6.3c8.7,0,16.7,1.8,26.7,5.9
		c4.1,1.7,7.8,3.1,8.2,3.1c1.1,0,1.2-5.1,0.1-6.7C168.8,356.7,165,354.5,160.7,352.4z"/>
	<path class="st0" d="M396,349.9c-3.5-1.8-22.3-2.2-28-0.6c-2.5,0.7-7.2,2.7-10.5,4.3c-5.7,3-6,3.3-6.3,7.2l-0.3,4.1l6.7-3
		c9.4-4.3,20.4-6.9,29-6.9c8.5,0,11.5,1.1,16.7,5.9c3.1,3,3.9,3.3,4.7,2.1c0.5-0.8,1-2,1-2.6C409,359.2,400.3,352.2,396,349.9z"/>
	<path class="st0" d="M104.2,362c-1.5,0-4.4,1-6.5,2.2c-3.9,2.3-5.8,6.1-3.9,8c0.8,0.8,2.1,0.2,4.7-2c2.1-1.9,5.2-3.4,7.5-3.8
		C112.2,365.4,110.8,362,104.2,362z"/>
	<path class="st0" d="M423.8,364.7c-2.5-1.9-9.3-3.1-11.5-2.1c-2.1,0.9-1.5,3.4,0.7,3.4c2.5,0,7.7,2.5,10.6,5.2
		c1.9,1.7,2.2,1.7,3.4,0.2C428.6,369.6,427.7,367.6,423.8,364.7z"/>
	<path class="st0" d="M962.1,223.1c-4.5,11.7-7.1,18.4-7.1,18.6s3.6,0.3,8,0.3s8-0.3,8-0.7c0-1.4-6.3-18.8-7.1-19.7
		C963.4,221.1,962.7,221.7,962.1,223.1z"/>
	<path class="st0" d="M1227,240.6c0-1.8-5.9-17.8-6.9-18.9c-0.4-0.4-2.2,2.6-4,6.8c-1.7,4.2-3.4,9-3.8,10.6l-0.5,2.9h7.6
		C1225.3,242,1227,241.7,1227,240.6z"/>
	<path class="st0" d="M903.5,237.5l4.2,0.3c8.7,0.6,13.7-5.3,13.7-16.3c0-6.6-2-11.6-5.7-13.9c-2.6-1.6-7.5-2.6-9.9-1.9
		c-2.6,0.7-2.9,3.2-2.6,18.3L903.5,237.5z"/>
	<path class="st0" d="M1144.7,206c-5.5,0-6.8,0.3-7.7,1.9c-1.4,2.7-1.3,49.1,0.1,52.8c1.4,3.8,2.5,4.3,9.2,4.3
		c7.4,0,11.5-1.8,15.6-6.6c4.4-5.4,6.5-13.1,6.4-23.4C1168.1,215.7,1160.2,206,1144.7,206z"/>
	<path class="st0" d="M1298.2,265c7.1,0,11.3-1.7,15.5-6.1c4.8-5.2,6.6-11.7,6.6-23.4c0-20-7.6-29.5-23.6-29.5
		c-6.4,0-6.8,0.1-7.8,2.7c-0.6,1.7-0.9,12-0.7,27.4C1288.6,265.4,1288.4,265,1298.2,265z"/>
	<path class="st0" d="M1412.4,207.5c-4.4-1.8-15.5-2-17.2-0.3c-0.9,0.9-1.2,8.2-1.2,26.6c0,24.9,0.4,28.4,3.4,30.4
		c1.9,1.3,12.5,0.9,16-0.6c4.4-1.8,9.3-8,11.1-14c2-6.8,1.8-22.7-0.3-28.8C1422.1,215.1,1417.2,209.5,1412.4,207.5z"/>
	<path class="st0" d="M511.4,342c-3.9-3.4-10.7-5-21.4-5h-8v16.5V370l10.8-0.1c18.4-0.1,21.7-2.6,21.7-16.6
		C514.5,345.1,514.4,344.8,511.4,342z"/>
	<path class="st0" d="M589.1,351.1c-0.6,1.3-3.1,7.1-5.6,12.8c-2.5,5.7-4.5,10.7-4.5,11.2s5.2,0.9,11.5,0.9s11.5-0.3,11.5-0.6
		c0-1.1-10.2-24.9-11.1-25.8C590.5,349.1,589.7,349.7,589.1,351.1z"/>
	<path class="st0" d="M906.4,352.6c-0.9,2.1-3.3,7.8-5.5,12.7c-2.1,4.8-3.9,9.2-3.9,9.7c0,0.6,4.5,1,11.5,1c6.3,0,11.5-0.3,11.5-0.6
		c0-1.1-10.2-24.9-11.1-25.8C908.4,349,907.4,350.3,906.4,352.6z"/>
	<path class="st0" d="M1117.7,349.8c-0.4,0.4-3.1,6.5-6.1,13.5l-5.4,12.7h12c9.2,0,11.9-0.3,11.5-1.3
		C1117.5,346.2,1118.5,348.4,1117.7,349.8z"/>
	<path class="st0" d="M1358.2,351.1c-0.6,1.3-3,7-5.6,12.7c-2.5,5.6-4.6,10.7-4.6,11.2c0,0.6,4.5,1,11.5,1c6.3,0,11.5-0.3,11.5-0.6
		c0-1.1-10.2-24.9-11.1-25.8C1359.4,349.1,1358.7,349.7,1358.2,351.1z"/>
</g>
</svg>
