<?xml version="1.0" standalone="no"?>
<!DOCTYPE svg PUBLIC "-//W3C//DTD SVG 20010904//EN"
 "http://www.w3.org/TR/2001/REC-SVG-20010904/DTD/svg10.dtd">
<svg version="1.0" xmlns="http://www.w3.org/2000/svg"
 width="1374.000000pt" height="875.000000pt" viewBox="0 0 1374.000000 875.000000"
 preserveAspectRatio="xMidYMid meet">

<g transform="translate(0.000000,875.000000) scale(0.100000,-0.100000)"
fill="#000000" stroke="none">
<path d="M0 4375 l0 -4375 6870 0 6870 0 0 1893 0 1892 -29 -60 c-16 -33 -37
-69 -48 -80 -18 -19 -19 -36 -19 -270 0 -238 -5 -307 -40 -560 -22 -161 -18
-155 -73 -101 -26 25 -50 46 -54 46 -4 0 -7 -13 -7 -29 0 -17 -4 -32 -8 -35
-5 -3 -129 116 -278 265 -148 148 -272 269 -275 269 -4 0 -28 -17 -55 -38
-114 -90 -231 -136 -386 -152 -160 -16 -972 -13 -1104 5 -176 23 -280 63 -397
152 l-58 44 -32 -20 c-18 -11 -151 -140 -297 -286 -233 -233 -265 -262 -268
-240 -4 29 -26 33 -41 8 -5 -10 -12 -15 -16 -11 -9 9 -42 241 -54 383 -6 66
-11 216 -11 334 l0 213 -29 37 c-17 21 -40 62 -52 92 -25 62 -27 150 -10 406
11 164 24 211 79 297 24 37 32 62 32 94 0 117 52 630 96 952 35 253 47 272
226 370 23 12 56 20 85 20 l48 0 28 118 c28 112 28 118 12 155 -23 54 -30 155
-15 203 7 21 23 58 37 82 21 37 25 57 27 148 2 92 0 106 -17 122 -17 15 -19
26 -13 102 29 368 132 865 272 1307 42 134 46 142 71 145 22 2 29 10 37 38 5
19 11 37 12 38 3 4 116 22 289 47 392 55 913 42 1314 -35 29 -5 55 -10 57 -10
6 0 98 -303 140 -459 88 -331 150 -675 188 -1043 5 -50 4 -59 -15 -72 -20 -13
-21 -23 -20 -126 2 -99 5 -116 25 -148 13 -21 29 -54 36 -76 16 -51 8 -181
-13 -223 -16 -30 -15 -36 23 -185 27 -107 43 -152 52 -149 40 12 114 12 155 0
49 -13 111 -66 136 -116 29 -57 96 -594 132 -1052 14 -177 17 -198 39 -230 43
-62 67 -128 75 -209 5 -42 9 950 10 2206 l1 2282 -3382 -2 c-2280 -2 -3036 -5
-2318 -9 673 -4 1086 -10 1122 -17 234 -43 399 -145 471 -291 l32 -66 3 -632
3 -633 -26 0 c-21 0 -25 -5 -25 -30 l0 -30 -350 0 -349 0 -5 33 c-5 32 -16
208 -37 617 -7 124 -16 230 -21 237 -8 9 -196 12 -801 12 -436 1 -802 -2 -814
-5 l-23 -6 0 -1284 0 -1284 834 0 833 0 7 98 c3 53 9 219 12 367 4 149 8 281
10 295 1 14 3 35 3 48 1 12 7 22 15 22 8 0 16 10 18 23 l3 22 349 2 c191 1
355 -1 363 -4 12 -5 13 -52 9 -302 -11 -611 -61 -985 -152 -1131 -33 -53 -62
-76 -141 -109 -214 -91 -551 -117 -1423 -107 -775 9 -907 13 -997 32 -218 45
-375 169 -443 350 -53 142 -51 82 -47 1705 3 1330 5 1513 19 1581 58 280 168
436 338 482 50 13 -13 15 -655 15 -616 -1 -702 -2 -649 -14 108 -23 166 -67
185 -139 6 -22 15 -57 19 -76 5 -19 21 -249 35 -510 27 -510 61 -1109 70
-1255 5 -90 13 -237 60 -1100 26 -494 30 -557 45 -825 5 -96 17 -314 25 -485
9 -170 20 -386 25 -480 5 -93 14 -267 20 -385 6 -118 15 -305 20 -415 6 -110
17 -344 25 -520 8 -176 17 -365 20 -420 3 -55 10 -219 15 -365 6 -146 17 -418
25 -605 20 -464 29 -944 21 -1037 l-8 -78 -336 3 -337 2 -6 255 c-4 140 -9
327 -13 415 -25 670 -38 973 -44 993 l-7 23 -585 0 -585 0 -2 -23 c-4 -36 -32
-692 -38 -898 -4 -102 -8 -205 -10 -230 -2 -25 -4 -141 -4 -257 l-1 -213 -24
0 c-21 0 -25 -6 -28 -33 l-3 -32 -335 0 -335 0 -4 65 c-7 135 55 1820 94 2535
3 55 10 197 15 315 6 118 15 301 20 405 6 105 15 282 20 395 12 248 46 896 60
1150 6 102 19 356 30 565 11 209 27 495 35 635 8 140 19 343 25 450 15 290 38
702 55 990 21 358 32 550 46 810 9 187 15 232 31 268 24 51 77 85 163 106 53
13 -47 14 -920 14 -667 -1 -915 -4 -775 -9 451 -18 610 -56 703 -170 81 -99
102 -128 118 -165 26 -57 37 -185 44 -504 3 -151 8 -369 11 -485 45 -1885 56
-3852 25 -4590 -12 -280 -36 -580 -52 -658 -16 -76 -67 -172 -119 -223 -76
-75 -237 -142 -413 -172 -90 -15 -186 -17 -802 -16 -385 0 -769 3 -852 8
l-153 7 0 -533 c0 -293 -3 -665 -7 -825 l-6 -293 -54 0 c-52 0 -53 0 -53 -30
l0 -30 -355 0 -355 0 0 4324 0 4325 43 5 c23 3 256 10 517 16 261 6 511 12
555 14 44 1 -191 3 -522 4 l-603 2 0 -4375z m7188 -1052 l2 -813 865 0 865 0
0 809 0 810 43 6 c23 3 193 5 377 3 l335 -3 0 -2050 0 -2050 -357 -3 -358 -2
-1 22 c-1 13 -1 27 0 31 1 5 -8 11 -19 14 -20 5 -20 10 -20 829 l0 824 -865 0
-865 0 0 -860 0 -860 -360 0 -360 0 0 2055 0 2055 358 -2 357 -3 3 -812z
m3617 -533 c3 -5 21 -10 40 -10 31 0 35 -3 53 -52 11 -29 23 -64 27 -77 l7
-23 12 23 c11 22 17 24 86 22 105 -2 148 -11 162 -36 13 -25 2 -235 -14 -254
-12 -15 -50 -17 -63 -4 -6 5 -26 11 -45 13 -33 3 -36 7 -69 85 -19 45 -36 81
-38 80 -1 -2 12 -47 30 -100 42 -129 40 -131 -87 -135 -53 -1 -96 -6 -96 -9 0
-12 83 -223 87 -220 1 2 -7 31 -20 65 -32 89 -25 96 93 100 61 2 97 -1 107 -9
8 -7 31 -15 51 -18 34 -6 37 -10 40 -41 5 -49 -39 -289 -56 -306 -19 -20 -49
-17 -65 6 -8 11 -17 17 -20 14 -12 -12 -56 7 -62 27 -4 11 -9 19 -11 17 -2 -2
5 -28 16 -56 25 -66 25 -98 1 -112 -11 -5 -75 -10 -143 -9 -114 0 -127 2 -173
27 l-50 27 -2 410 -3 410 78 78 c75 73 111 92 127 67z m2192 -12 c18 -17 26
-19 35 -10 29 29 63 13 141 -67 l77 -79 0 -410 0 -411 -22 -15 c-12 -9 -42
-16 -66 -16 -30 0 -41 -3 -36 -12 4 -6 7 -26 6 -45 -2 -40 10 -43 24 -5 14 37
49 47 75 21 18 -18 19 -36 19 -286 0 -151 -4 -275 -10 -283 -7 -12 -37 -16
-134 -18 -123 -4 -126 -3 -151 22 -19 19 -36 26 -65 26 -66 0 -68 20 -15 151
46 112 46 112 29 148 -22 47 -20 46 -39 27 -36 -36 -64 -13 -95 78 -12 36 -20
78 -18 93 3 28 3 28 86 31 67 2 83 0 88 -13 8 -19 104 -22 104 -2 0 6 7 24 14
40 l15 27 -52 0 c-33 0 -62 6 -76 17 -13 9 -39 17 -57 18 -40 1 -64 20 -64 50
0 13 -7 25 -15 29 -8 3 -15 17 -15 31 0 30 -4 31 -30 5 -44 -44 -70 -15 -93
105 -9 44 -19 110 -23 147 -6 60 -5 67 14 77 25 13 184 15 198 2 5 -6 32 -13
59 -16 50 -7 50 -7 63 27 18 51 16 58 -22 58 -19 0 -38 5 -41 10 -3 6 -26 10
-49 10 -27 0 -48 6 -56 15 -7 8 -22 15 -34 15 -29 0 -46 18 -46 49 l0 26 -23
-29 c-19 -23 -29 -28 -49 -23 -14 4 -29 14 -32 23 -3 8 -6 67 -7 131 0 86 3
118 13 125 13 8 101 6 204 -6 l51 -5 17 54 c27 86 58 105 103 63z m-925 6 l67
-7 22 -64 c20 -61 22 -63 39 -48 15 13 33 16 87 12 110 -7 167 -17 175 -30 11
-17 10 -221 -2 -251 -13 -34 -61 -36 -83 -3 -13 17 -18 19 -25 9 -5 -8 -20
-12 -33 -10 -19 2 -33 20 -62 78 -42 82 -42 81 3 -50 44 -125 41 -128 -94
-132 l-104 -3 89 -229 c49 -125 89 -237 89 -247 0 -32 -34 -39 -180 -39 -109
0 -141 -3 -138 -12 3 -7 22 -15 44 -18 34 -4 42 -10 62 -50 12 -25 20 -35 17
-23 -4 15 1 29 16 44 19 19 29 21 87 16 44 -3 70 -10 78 -21 6 -9 25 -16 42
-16 31 0 62 -22 62 -43 0 -35 -54 -168 -72 -178 -23 -12 -68 12 -68 36 0 18
-12 19 -28 3 -9 -9 -18 -9 -38 1 -21 9 -25 9 -21 -1 3 -7 32 -77 66 -156 65
-152 72 -185 42 -202 -12 -6 -114 -10 -261 -10 l-241 0 -23 25 c-15 16 -34 25
-54 25 -25 0 -33 5 -38 25 -7 27 -2 43 50 163 l36 83 -25 9 c-14 5 -28 17 -31
25 -4 10 -13 13 -25 10 -34 -11 -55 12 -83 93 -35 101 -29 118 44 124 58 4
113 -6 118 -21 2 -6 15 -11 28 -11 14 0 33 -4 43 -10 16 -8 22 -2 39 40 l21
50 -50 0 c-30 0 -63 8 -86 20 -21 11 -45 20 -54 20 -23 0 -42 26 -36 49 4 17
1 19 -23 15 -21 -5 -31 -1 -43 15 -11 16 -21 20 -39 16 -16 -4 -29 0 -39 12
-17 19 -44 144 -55 250 -9 88 -3 93 110 93 51 0 96 -4 102 -9 5 -6 24 -13 43
-16 43 -7 51 -12 60 -37 6 -17 11 -11 28 33 l20 54 -51 3 c-28 2 -55 7 -60 13
-6 5 -23 9 -38 9 -15 0 -37 9 -47 19 -18 18 -18 23 -6 63 7 24 18 56 24 72 22
56 5 34 -23 -29 -25 -58 -31 -65 -56 -65 -15 0 -33 6 -39 13 -6 8 -23 12 -39
9 -16 -2 -33 2 -40 10 -6 8 -14 66 -18 129 -8 146 -4 152 100 146 97 -6 136
-14 156 -32 16 -15 18 -14 24 10 4 14 16 50 27 80 l20 55 162 0 c89 0 192 -3
229 -6z m303 -543 c84 -21 84 -18 43 -239 -16 -88 -25 -115 -40 -123 -25 -13
-55 -3 -63 22 -7 22 -16 24 -32 8 -23 -23 -60 -1 -76 43 -9 24 -34 90 -56 148
-44 114 -47 130 -28 149 15 15 178 10 252 -8z m-1696 -482 c11 -12 24 -18 29
-15 19 11 50 -30 82 -109 18 -44 65 -158 106 -253 41 -95 74 -184 74 -197 0
-37 -28 -45 -155 -45 -111 0 -117 1 -139 25 -13 14 -30 25 -38 25 -36 0 -38
19 -38 297 0 248 2 273 18 282 26 15 39 13 61 -10z m292 -55 c8 -8 24 -14 35
-14 27 0 44 -19 44 -49 0 -44 -51 -171 -69 -172 -29 -2 -46 2 -56 15 -5 7 -22
16 -37 20 -22 5 -34 20 -59 74 -50 111 -49 133 11 145 38 8 113 -3 131 -19z
m-132 -788 c5 -3 12 -18 15 -33 18 -80 90 -339 95 -346 4 -4 45 81 91 188 l84
196 55 -3 55 -3 81 -187 c45 -103 84 -190 87 -193 7 -8 9 -5 53 170 20 77 41
157 47 178 l11 37 133 0 c73 0 139 3 148 6 11 4 16 1 16 -10 0 -16 -232 -771
-249 -812 -9 -19 -18 -22 -104 -23 -149 -3 -137 -13 -207 167 -34 87 -65 161
-69 165 -5 4 -37 -68 -73 -160 l-64 -168 -121 -3 -121 -3 -21 63 c-11 35 -54
173 -96 308 -42 135 -91 294 -110 354 -19 60 -33 112 -31 115 5 7 283 4 295
-3z m1609 -105 l3 -110 -148 -3 -148 -3 -3 -42 -3 -43 136 0 136 0 -3 -102 -3
-103 -133 -3 -133 -3 3 -42 3 -42 150 -5 150 -5 0 -110 0 -110 -277 -2 c-152
-2 -284 0 -292 3 -14 5 -16 55 -16 419 0 267 4 415 10 417 5 2 135 2 287 1
l278 -2 3 -110z m659 89 c26 -11 58 -31 71 -43 84 -78 81 -219 -6 -300 l-30
-29 40 -36 c56 -51 78 -99 78 -172 0 -140 -79 -213 -253 -231 -90 -10 -409
-11 -434 -1 -16 5 -19 828 -3 834 5 2 118 2 250 1 219 -2 243 -4 287 -23z"/>
<path d="M10906 2060 c4 -14 15 -43 25 -65 11 -22 16 -29 13 -15 -4 14 -15 43
-25 65 -11 22 -16 29 -13 15z"/>
<path d="M12830 660 l0 -59 62 3 c65 3 88 19 88 61 0 37 -31 55 -93 55 l-57 0
0 -60z"/>
<path d="M12830 355 l0 -65 50 0 c61 0 99 16 106 46 14 55 -23 84 -106 84
l-50 0 0 -65z"/>
<path d="M11676 8188 c-21 -162 -52 -1215 -36 -1222 3 -2 75 -1 160 2 l156 4
57 82 c31 44 57 89 57 99 0 10 -45 65 -100 121 -71 73 -100 110 -100 127 0 14
35 77 80 146 45 69 80 132 80 146 0 18 -27 50 -105 123 -70 66 -105 107 -105
121 0 12 36 76 81 144 44 67 83 128 86 136 4 9 -6 13 -34 13 -35 0 -48 -9
-126 -80 -48 -44 -94 -80 -102 -80 -12 0 -15 14 -15 60 l0 60 43 0 c36 0 43 3
44 20 2 18 -4 20 -57 20 l-59 0 -5 -42z m238 -397 c33 -36 44 -55 39 -68 -11
-31 -75 -104 -99 -113 -12 -5 -33 -23 -45 -39 -13 -18 -32 -31 -45 -31 -23 0
-104 80 -104 102 0 25 73 118 96 124 13 3 33 21 45 40 30 48 56 45 113 -15z
m46 -617 c0 -16 -24 -24 -72 -24 -35 0 -39 -2 -28 -15 26 -31 5 -45 -70 -45
l-70 0 0 75 c0 88 15 105 53 61 13 -14 26 -26 30 -26 4 0 7 24 7 54 0 34 5 56
13 59 13 6 137 -120 137 -139z"/>
<path d="M12186 8213 c-2 -2 3 -49 10 -105 6 -57 17 -174 24 -260 7 -87 14
-158 16 -158 2 0 12 17 23 39 21 40 41 54 65 45 8 -3 22 9 34 31 12 19 28 38
37 41 21 8 19 16 -15 59 -16 21 -30 45 -30 54 0 9 20 64 44 121 l45 105 -27 3
c-19 3 -32 -4 -47 -22 -11 -14 -26 -26 -33 -26 -7 0 -28 -18 -48 -40 -49 -54
-70 -53 -79 6 -3 25 -4 48 -1 52 4 3 28 5 55 3 46 -2 48 -1 44 23 -5 22 -11
25 -60 28 -30 1 -56 2 -57 1z"/>
<path d="M12691 8214 c-1 -5 10 -41 23 -80 14 -38 25 -64 25 -58 1 5 -10 41
-23 80 -14 38 -25 64 -25 58z"/>
<path d="M11413 8177 c-23 -17 -43 -36 -43 -42 -1 -20 -81 -77 -101 -72 -10 3
-19 2 -19 -1 0 -4 -14 -81 -30 -170 -36 -198 -37 -206 -7 -165 12 18 27 33 34
33 6 0 26 18 43 40 41 52 70 53 105 3 14 -21 25 -46 25 -56 0 -17 -42 -63 -91
-103 -8 -6 -24 -23 -36 -38 -33 -38 -50 -35 -90 16 l-21 28 -6 -33 c-17 -96
-56 -525 -56 -623 l0 -76 88 6 c156 12 139 1 205 143 31 68 57 132 57 141 0
10 -34 56 -75 102 -54 62 -75 93 -75 113 0 17 30 73 85 158 47 71 85 139 85
150 0 11 -29 56 -65 102 -36 45 -68 92 -71 105 -5 17 6 42 41 94 26 39 63 95
82 125 l34 53 -28 0 c-16 0 -46 -14 -70 -33z m-85 -939 c65 -64 64 -81 -3 -88
-31 -3 -45 -8 -37 -13 6 -5 12 -16 12 -26 0 -15 -10 -19 -57 -24 -32 -2 -61
-3 -65 0 -5 2 -8 35 -8 74 0 75 11 87 45 49 26 -28 32 -25 27 15 -9 80 15 84
86 13z"/>
<path d="M11276 8174 c-9 -23 -8 -24 13 -24 30 0 51 11 51 26 0 20 -56 18 -64
-2z"/>
<path d="M11217 8173 c-2 -5 -7 -21 -11 -38 l-7 -30 21 33 c11 18 20 35 20 37
0 8 -18 6 -23 -2z"/>
<path d="M12761 7984 c0 -11 3 -14 6 -6 3 7 2 16 -1 19 -3 4 -6 -2 -5 -13z"/>
<path d="M887 7933 c-3 -5 -8 -514 -11 -1133 -4 -619 -11 -1667 -16 -2330 -5
-663 -10 -1375 -10 -1582 l0 -378 770 0 770 0 2 2683 c1 1475 2 2696 2 2712
l1 30 -752 3 c-413 1 -754 -1 -756 -5z"/>
<path d="M4556 7893 c-3 -27 -8 -95 -11 -153 -3 -58 -14 -249 -25 -425 -11
-176 -31 -516 -45 -755 -14 -239 -32 -547 -40 -685 -8 -137 -24 -414 -35 -615
-11 -201 -22 -394 -25 -430 -3 -36 -12 -193 -20 -350 -8 -157 -24 -447 -35
-645 -10 -198 -24 -450 -30 -560 -31 -590 -40 -771 -40 -777 0 -5 249 -8 554
-8 l555 0 -5 53 c-2 28 -11 192 -19 362 -8 171 -20 389 -25 485 -6 96 -24 425
-40 730 -33 609 -66 1207 -75 1340 -3 47 -14 245 -25 440 -22 401 -38 660 -45
770 -3 41 -21 340 -40 663 -19 324 -37 593 -40 598 -4 5 -110 9 -245 9 l-238
0 -6 -47z"/>
<path d="M11147 7845 c-4 -25 -9 -57 -12 -72 -4 -22 -1 -20 15 12 20 42 26 90
11 99 -4 3 -11 -15 -14 -39z"/>
<path d="M12583 7828 c3 -13 9 -47 13 -76 7 -59 23 -64 37 -13 7 28 4 39 -19
72 -31 44 -39 49 -31 17z"/>
<path d="M11073 7746 c-11 -49 -1 -54 15 -7 5 15 7 33 3 40 -4 7 -12 -8 -18
-33z"/>
<path d="M12477 7680 c-24 -57 -27 -60 -60 -60 -29 0 -37 -5 -47 -30 -24 -59
-65 -60 -110 -3 l-21 28 5 -75 c3 -41 9 -188 12 -326 l7 -251 135 -11 c75 -7
136 -11 137 -9 54 93 95 174 95 187 0 9 -45 68 -100 131 -62 71 -100 122 -100
136 0 12 22 77 50 145 52 127 60 168 37 187 -11 9 -19 -1 -40 -49z m25 -427
c77 -76 77 -93 -2 -93 -60 0 -70 -6 -49 -27 23 -23 2 -43 -43 -43 -84 0 -88 4
-88 81 0 61 2 69 19 69 11 0 30 -13 44 -29 14 -17 28 -27 31 -24 3 4 6 30 6
58 0 83 6 83 82 8z"/>
<path d="M12743 7555 c12 -42 51 -378 63 -547 6 -94 8 -98 30 -98 29 0 29 -4
4 162 -33 228 -83 484 -95 496 -4 4 -5 -2 -2 -13z"/>
<path d="M11068 7292 c-2 -23 0 -42 4 -42 13 0 20 48 10 66 -8 14 -10 9 -14
-24z"/>
<path d="M10971 7224 c-6 -44 -14 -92 -17 -109 -4 -24 1 -19 25 25 33 60 38
102 17 139 -12 21 -14 17 -25 -55z"/>
<path d="M12674 7245 c3 -22 6 -61 6 -87 0 -55 13 -61 35 -18 22 43 18 72 -16
110 l-30 35 5 -40z"/>
<path d="M11600 6793 c-70 -3 -435 -34 -577 -49 l-63 -7 -2 -36 c-1 -39 1 -73
5 -78 2 -1 171 6 377 17 408 21 756 25 1030 10 96 -5 242 -12 324 -16 l149 -7
-7 44 c-4 24 -13 49 -21 55 -13 10 -348 43 -650 64 -121 9 -392 10 -565 3z"/>
<path d="M11420 6405 c-14 -3 -137 -6 -273 -7 -207 -3 -249 -5 -258 -18 -14
-21 -1 -95 23 -136 l20 -34 983 0 983 0 6 23 c9 36 7 104 -5 130 -10 23 -16
24 -137 30 -148 8 -1305 18 -1342 12z"/>
<path d="M11821 5778 c-18 -38 -23 -97 -49 -528 -27 -448 -28 -486 -13 -497 9
-7 25 -19 36 -28 l20 -17 -20 8 c-51 18 -119 33 -127 28 -5 -4 5 -15 22 -26
41 -25 34 -33 -13 -13 -70 29 -97 13 -97 -57 0 -65 97 -184 228 -281 83 -61
120 -68 173 -33 61 41 184 162 218 215 39 60 42 117 8 149 -28 27 -106 30
-160 7 -52 -22 -57 -18 -14 10 20 14 37 29 37 33 0 4 -14 220 -30 481 -33 534
-32 529 -110 569 -66 33 -85 30 -109 -20z"/>
<path d="M11001 5758 c-51 -14 -100 -56 -143 -122 -54 -83 -57 -114 -19 -169
35 -51 85 -94 151 -128 35 -18 65 -24 140 -27 93 -4 96 -3 143 29 57 37 117
115 142 181 l17 47 -33 46 c-86 119 -261 183 -398 143z"/>
<path d="M12517 5740 c-56 -38 -117 -113 -117 -144 0 -37 52 -129 101 -178 68
-68 138 -100 230 -106 90 -5 119 7 188 77 76 76 79 88 43 165 -61 131 -173
207 -316 214 -78 4 -83 2 -129 -28z"/>
<path d="M10536 5707 c-29 -45 -144 -1062 -123 -1083 3 -3 23 0 45 5 47 13 52
25 52 126 0 144 43 538 81 755 32 177 33 185 18 196 -29 23 -59 23 -73 1z"/>
<path d="M13224 5690 c49 -242 106 -732 106 -916 0 -105 5 -124 31 -124 21 0
22 -26 -12 325 -18 190 -34 323 -70 592 -10 71 -18 98 -36 120 l-24 28 5 -25z"/>
<path d="M13178 5406 c-22 -22 -22 -27 2 -216 10 -85 24 -236 31 -335 6 -99
13 -182 15 -184 2 -2 10 -1 17 2 12 4 14 24 11 94 -8 160 -25 376 -42 517 -16
133 -18 139 -34 122z"/>
<path d="M11398 5319 c-26 -17 -89 -47 -140 -66 -176 -67 -328 -56 -478 36
-36 21 -66 36 -67 33 -7 -21 -34 -309 -40 -432 -11 -214 -11 -214 12 -218 86
-16 211 -119 257 -213 47 -97 51 -143 34 -391 -16 -241 -27 -292 -76 -368
l-32 -50 65 -93 c70 -100 122 -144 191 -161 29 -8 276 -9 812 -6 l769 5 51 32
c45 29 114 110 167 196 18 29 18 30 -8 66 -51 74 -64 136 -79 365 -8 139 -10
234 -4 272 21 133 117 256 241 308 l67 29 0 56 c0 109 -28 449 -46 572 l-5 36
-52 -28 c-46 -24 -126 -50 -252 -81 -22 -6 -85 -8 -140 -5 -110 5 -178 26
-259 77 -27 17 -50 29 -52 27 -8 -8 -43 -218 -49 -298 l-7 -84 59 -30 c76 -38
189 -152 237 -237 109 -197 164 -500 146 -808 -10 -160 -54 -235 -166 -287
l-52 -24 -609 3 -608 3 -55 30 c-60 33 -112 98 -130 163 -13 49 -13 370 1 469
45 331 177 579 360 677 30 16 55 30 56 30 12 8 -49 402 -65 418 -4 4 -28 -7
-54 -23z"/>
<path d="M10431 4473 c-107 -76 -131 -161 -134 -493 -2 -132 1 -160 16 -187
114 -209 375 -207 469 4 18 41 37 241 39 413 1 92 -22 155 -75 210 -51 53
-108 78 -191 86 -69 6 -71 5 -124 -33z m237 -203 c18 -11 41 -34 53 -52 18
-30 20 -45 16 -143 -6 -170 -36 -208 -174 -220 -117 -12 -179 21 -204 107 -12
43 6 224 25 253 22 34 56 54 107 64 79 16 142 12 177 -9z"/>
<path d="M10506 4188 c-8 -13 -17 -62 -21 -110 l-7 -88 27 0 c38 0 84 27 95
56 6 14 10 45 10 70 0 76 -70 124 -104 72z"/>
<path d="M13175 4493 c-90 -49 -142 -124 -152 -216 -8 -79 15 -405 33 -459 30
-91 137 -180 218 -180 72 0 162 66 202 149 26 52 27 63 26 171 -2 114 -12 175
-12 73 0 -61 -17 -107 -54 -140 -22 -21 -40 -25 -141 -33 -103 -9 -119 -8
-152 9 -61 29 -79 67 -87 177 -7 105 -2 138 25 177 28 40 74 56 185 64 84 6
108 4 136 -9 44 -21 71 -67 80 -136 4 -34 5 -13 2 53 -5 125 -21 173 -78 230
-71 71 -173 102 -231 70z"/>
<path d="M12919 4308 c-22 -84 6 -460 40 -527 31 -60 42 -58 20 4 -15 42 -23
113 -34 278 -8 122 -12 237 -9 255 9 47 -3 39 -17 -10z"/>
<path d="M13345 4213 c13 -34 25 -116 25 -170 0 -53 1 -54 27 -51 26 3 26 3
24 82 -3 91 -11 118 -43 140 -29 21 -42 20 -33 -1z"/>
<path d="M13140 4190 c-16 -16 -20 -33 -20 -83 0 -55 3 -67 25 -87 l25 -24 -2
95 c-1 52 1 100 6 107 12 19 -12 14 -34 -8z"/>
<path d="M13240 4181 c-5 -11 -10 -43 -10 -71 0 -45 4 -56 31 -81 17 -16 34
-29 39 -29 4 0 5 35 2 78 -6 101 -36 151 -62 103z"/>
<path d="M11383 3963 c-9 -3 -13 -28 -13 -74 0 -67 1 -69 25 -69 24 0 25 2 25
75 0 75 -4 82 -37 68z"/>
<path d="M11450 3895 l0 -75 70 0 70 0 0 75 0 75 -70 0 -70 0 0 -75z"/>
<path d="M11620 3895 l0 -75 30 0 30 0 0 75 0 75 -30 0 -30 0 0 -75z"/>
<path d="M11710 3895 l0 -75 65 0 65 0 0 75 0 75 -65 0 -65 0 0 -75z"/>
<path d="M11870 3894 l0 -75 33 3 32 3 3 73 4 72 -36 0 -36 0 0 -76z"/>
<path d="M11960 3895 l0 -75 65 0 65 0 0 75 0 75 -65 0 -65 0 0 -75z"/>
<path d="M12120 3895 l0 -75 35 0 35 0 0 75 0 75 -35 0 -35 0 0 -75z"/>
<path d="M12210 3895 l0 -75 65 0 65 0 0 75 0 75 -65 0 -65 0 0 -75z"/>
<path d="M12360 3918 c0 -84 7 -98 46 -98 l34 0 0 54 c0 49 -3 57 -29 75 -44
31 -51 27 -51 -31z"/>
<path d="M11317 3893 c-8 -16 -18 -38 -21 -50 -6 -20 -4 -23 18 -23 24 0 26 3
26 50 0 28 -2 50 -5 50 -2 0 -11 -12 -18 -27z"/>
<path d="M12465 3857 c-4 -10 -3 -23 4 -30 16 -16 23 -3 12 24 -8 22 -10 22
-16 6z"/>
<path d="M11295 3768 c4 -13 16 -36 26 -53 l19 -30 0 53 c0 49 -1 52 -26 52
-22 0 -24 -3 -19 -22z"/>
<path d="M11370 3722 c0 -64 2 -70 25 -80 l25 -12 0 80 c0 79 0 80 -25 80 -24
0 -25 -2 -25 -68z"/>
<path d="M11450 3710 l0 -80 70 0 70 0 0 80 0 80 -70 0 -70 0 0 -80z"/>
<path d="M11620 3710 l0 -80 30 0 30 0 0 80 0 80 -30 0 -30 0 0 -80z"/>
<path d="M11710 3710 l0 -80 65 0 65 0 0 80 0 80 -65 0 -65 0 0 -80z"/>
<path d="M11870 3710 l0 -80 35 0 35 0 0 80 0 80 -35 0 -35 0 0 -80z"/>
<path d="M11960 3710 l0 -80 65 0 65 0 0 80 0 80 -65 0 -65 0 0 -80z"/>
<path d="M12120 3710 l0 -80 35 0 35 0 0 80 0 80 -35 0 -35 0 0 -80z"/>
<path d="M12210 3710 l0 -80 65 0 65 0 0 80 0 80 -65 0 -65 0 0 -80z"/>
<path d="M12361 3719 c2 -79 13 -92 54 -65 22 15 25 24 25 76 l0 60 -41 0 -40
0 2 -71z"/>
<path d="M12460 3750 c0 -45 16 -53 30 -14 15 38 12 54 -10 54 -17 0 -20 -7
-20 -40z"/>
</g>
</svg>
